<svg width="407" height="346" viewBox="0 0 407 346" fill="none" xmlns="http://www.w3.org/2000/svg">
<path d="M349.6 327.6C349.6 327.6 368.22 308.1 381.38 279.58C410.25 217.02 385.71 148.31 340.65 134.78C252.98 108.46 268.73 236.77 136.47 119.1C60.9102 51.8896 0.580078 115.52 0.580078 149.85C0.580078 183.13 6.90981 204.27 90.5498 234.3C152.68 256.6 -4.39002 270.24 20.73 321.5C34.71 350 349.6 327.6 349.6 327.6Z" fill="#EDE9FE"/>
<path d="M406.419 335.3C406.419 341.2 317.1 345.9 206.93 345.9C96.7497 345.9 7.43945 341.2 7.43945 335.3C7.43945 329.4 96.7497 324.6 206.93 324.6C317.1 324.6 406.419 329.4 406.419 335.3Z" fill="#ACBFE2"/>
<path d="M89.4609 2.37012C89.4609 2.37012 98.5607 47.7 123.261 85C123.261 85 105.061 26.7301 89.4609 2.37012Z" fill="#353A66"/>
<path d="M158.94 0C158.94 0 137.9 41.18 134.08 85.75C134.08 85.75 156.02 28.79 158.94 0Z" fill="#FFB025"/>
<path d="M221.509 43.0801C221.509 43.0801 178.019 58.8 144.789 88.75C144.789 88.75 199.719 62.1201 221.509 43.0801Z" fill="#D086E5"/>
<path d="M234.069 98.1698C234.069 98.1698 188.779 88.8599 144.789 97.0399C144.789 97.0399 205.549 103.03 234.069 98.1698Z" fill="#7585F8"/>
<path d="M220.411 151.86C220.411 151.86 187.33 119.55 145.9 102.66C145.9 102.66 193.791 140.53 220.411 151.86Z" fill="#353A66"/>
<path d="M155.61 187.22C155.61 187.22 153.09 141.04 133.98 100.59C133.98 100.59 143.66 160.87 155.61 187.22Z" fill="#FFB025"/>
<path d="M79.1895 181.37C79.1895 181.37 108.34 145.47 121.35 102.66C121.35 102.66 88.0295 153.82 79.1895 181.37Z" fill="#353A66"/>
<path d="M32.0703 95.9102C32.0703 95.9102 77.4406 104.85 121.351 96.3096C121.351 96.3096 60.5503 90.8202 32.0703 95.9102Z" fill="#7585F8"/>
<path d="M62.3496 53.8701C62.3496 53.8701 86.4993 76.9896 116.569 88.8896C116.569 88.8896 81.6796 61.8701 62.3496 53.8701Z" fill="#FFB025"/>
<path d="M61.3594 135.19C61.3594 135.19 93.0493 124.53 117.549 103.42C117.549 103.42 77.4194 121.78 61.3594 135.19Z" fill="#D086E5"/>
<path d="M124.38 170.66C124.38 170.66 131.79 138.06 126.54 106.15C126.54 106.15 121.3 149.97 124.38 170.66Z" fill="#353A66"/>
<path d="M173.7 152.21C173.7 152.21 162.96 127.05 144.17 108.43C144.17 108.43 161.73 139.98 173.7 152.21Z" fill="#353A66"/>
<path d="M128.31 71.5498C128.31 71.5498 129.9 50.1296 123.51 30.3496C123.51 30.3496 124.38 58.6998 128.31 71.5498Z" fill="#353A66"/>
<path d="M149.9 70.4102C149.9 70.4102 167.881 58.6496 179.701 41.5596C179.701 41.5596 157.71 59.4702 149.9 70.4102Z" fill="#353A66"/>
<path d="M106.871 16.5403L109.86 22.5901C109.95 22.7601 110.11 22.8804 110.3 22.9104L116.971 23.8801C117.451 23.9501 117.641 24.5304 117.291 24.8704L112.46 29.5803C112.33 29.7103 112.261 29.9001 112.291 30.0901L113.44 36.7405C113.52 37.2105 113.02 37.5798 112.59 37.3498L106.63 34.2102C106.46 34.1202 106.25 34.1202 106.09 34.2102L100.11 37.3498C99.6904 37.5798 99.1905 37.2105 99.2705 36.7405L100.411 30.0901C100.441 29.9001 100.381 29.7103 100.241 29.5803L95.4204 24.8704C95.0704 24.5304 95.2605 23.9501 95.7305 23.8801L102.411 22.9104C102.601 22.8804 102.771 22.7601 102.851 22.5901L105.84 16.5403C106.05 16.1103 106.661 16.1103 106.871 16.5403Z" fill="#FFB025"/>
<path d="M100.11 37.3496L100.411 37.1904L110.63 22.96L110.3 22.9102C110.1 22.8802 109.94 22.7598 109.86 22.5898L108.88 20.5996L100.04 32.21L99.2704 36.7402C99.1904 37.2102 99.6802 37.5796 100.11 37.3496Z" fill="#FED150"/>
<path d="M106.63 34.21L106.86 34.3398L114.07 23.46L112.701 23.25L104.32 35.1396L106.081 34.21C106.251 34.12 106.45 34.12 106.63 34.21Z" fill="#FED150"/>
<path d="M100.131 25.3203C100.231 25.2103 100.401 24.7998 100.401 24.7998C100.401 24.7998 100.591 25.1998 100.691 25.2998C100.801 25.3998 101.221 25.5703 101.221 25.5703C101.221 25.5703 100.811 25.7601 100.711 25.8701C100.611 25.9701 100.441 26.3896 100.441 26.3896C100.441 26.3896 100.251 25.9899 100.151 25.8799C100.041 25.7799 99.6211 25.6104 99.6211 25.6104C99.6211 25.6104 100.031 25.4303 100.131 25.3203Z" fill="#F7F7FC"/>
<path d="M189.96 131.74L192.95 137.79C193.03 137.96 193.19 138.081 193.38 138.111L200.05 139.071C200.53 139.141 200.72 139.73 200.38 140.06L195.54 144.77C195.41 144.91 195.35 145.1 195.38 145.29L196.52 151.93C196.6 152.41 196.1 152.77 195.68 152.54L189.71 149.41C189.54 149.32 189.34 149.32 189.17 149.41L183.2 152.54C182.77 152.77 182.28 152.41 182.36 151.93L183.5 145.29C183.53 145.1 183.47 144.91 183.33 144.77L178.5 140.06C178.15 139.73 178.34 139.141 178.82 139.071L185.5 138.111C185.69 138.081 185.85 137.96 185.93 137.79L188.92 131.74C189.13 131.31 189.74 131.31 189.96 131.74Z" fill="#FFB025"/>
<path d="M183.201 152.54L183.5 152.39L193.721 138.15L193.38 138.11C193.19 138.08 193.031 137.96 192.951 137.79L191.971 135.8L183.13 147.4L182.36 151.93C182.28 152.41 182.771 152.77 183.201 152.54Z" fill="#FED150"/>
<path d="M189.71 149.41L189.95 149.54L197.16 138.66L195.79 138.45L187.41 150.33L189.17 149.41C189.33 149.32 189.54 149.32 189.71 149.41Z" fill="#FED150"/>
<path d="M183.209 140.52C183.309 140.41 183.479 139.99 183.479 139.99C183.479 139.99 183.669 140.4 183.769 140.5C183.879 140.6 184.299 140.77 184.299 140.77C184.299 140.77 183.899 140.96 183.789 141.07C183.689 141.17 183.519 141.59 183.519 141.59C183.519 141.59 183.329 141.18 183.229 141.08C183.119 140.98 182.699 140.81 182.699 140.81C182.699 140.81 183.109 140.63 183.209 140.52Z" fill="#F7F7FC"/>
<path d="M89.7711 135.88L91.5508 139.5C91.6008 139.59 91.7011 139.67 91.8111 139.69L95.7911 140.259C96.0711 140.299 96.191 140.649 95.981 140.849L93.1109 143.66C93.0209 143.74 92.9808 143.86 93.0108 143.96L93.691 147.929C93.741 148.219 93.4412 148.429 93.1812 148.299L89.6212 146.429C89.5212 146.369 89.4008 146.369 89.3008 146.429L85.7413 148.299C85.4813 148.429 85.1813 148.219 85.2413 147.929L85.921 143.96C85.941 143.86 85.9009 143.74 85.8209 143.66L82.941 140.849C82.731 140.649 82.8409 140.299 83.1309 140.259L87.1109 139.69C87.2309 139.67 87.3309 139.6 87.3809 139.5L89.1612 135.88C89.2812 135.62 89.6411 135.62 89.7711 135.88Z" fill="#FFB025"/>
<path d="M85.7299 148.3L85.9101 148.21L92.0097 139.71L91.81 139.68C91.7 139.67 91.5998 139.59 91.5498 139.49L90.9702 138.3L85.6899 145.22L85.2402 147.93C85.1802 148.22 85.4799 148.43 85.7299 148.3Z" fill="#FED150"/>
<path d="M89.6201 146.43L89.77 146.5L94.0698 140.01L93.25 139.89L88.25 146.98L89.2998 146.43C89.3998 146.37 89.5201 146.37 89.6201 146.43Z" fill="#FED150"/>
<path d="M85.749 141.12C85.809 141.06 85.9092 140.81 85.9092 140.81C85.9092 140.81 86.0191 141.06 86.0791 141.11C86.1491 141.17 86.3989 141.27 86.3989 141.27C86.3989 141.27 86.1489 141.38 86.0889 141.45C86.0289 141.51 85.9292 141.76 85.9292 141.76C85.9292 141.76 85.8188 141.52 85.7588 141.46C85.6888 141.39 85.4492 141.3 85.4492 141.3C85.4492 141.3 85.689 141.18 85.749 141.12Z" fill="#F7F7FC"/>
<path d="M274.461 72.8203C274.461 72.8203 280.821 104.48 298.071 130.53C298.071 130.53 285.361 89.8403 274.461 72.8203Z" fill="#353A66"/>
<path d="M322.989 71.1602C322.989 71.1602 308.289 99.92 305.629 131.04C305.629 131.04 320.949 91.2602 322.989 71.1602Z" fill="#FFB025"/>
<path d="M366.68 101.25C366.68 101.25 336.309 112.22 313.109 133.14C313.109 133.14 351.46 114.54 366.68 101.25Z" fill="#D086E5"/>
<path d="M375.45 139.72C375.45 139.72 343.829 133.22 313.109 138.93C313.109 138.93 355.53 143.11 375.45 139.72Z" fill="#7585F8"/>
<path d="M365.909 177.21C365.909 177.21 342.809 154.65 313.879 142.86C313.879 142.86 347.329 169.3 365.909 177.21Z" fill="#353A66"/>
<path d="M320.661 201.9C320.661 201.9 318.901 169.66 305.561 141.41C305.561 141.41 312.311 183.5 320.661 201.9Z" fill="#FFB025"/>
<path d="M267.301 197.82C267.301 197.82 287.651 172.75 296.731 142.86C296.731 142.86 273.471 178.58 267.301 197.82Z" fill="#353A66"/>
<path d="M234.391 138.139C234.391 138.139 266.071 144.39 296.741 138.41C296.741 138.41 254.281 134.589 234.391 138.139Z" fill="#7585F8"/>
<path d="M255.539 108.78C255.539 108.78 272.399 124.93 293.399 133.24C293.399 133.24 269.029 114.37 255.539 108.78Z" fill="#FFB025"/>
<path d="M254.85 165.57C254.85 165.57 276.98 158.13 294.08 143.38C294.08 143.38 266.06 156.21 254.85 165.57Z" fill="#D086E5"/>
<path d="M298.85 190.34C298.85 190.34 304.03 167.57 300.36 145.29C300.36 145.29 296.71 175.89 298.85 190.34Z" fill="#353A66"/>
<path d="M333.3 177.45C333.3 177.45 325.8 159.89 312.67 146.88C312.67 146.88 324.94 168.91 333.3 177.45Z" fill="#353A66"/>
<path d="M301.6 121.13C301.6 121.13 302.7 106.17 298.25 92.3604C298.25 92.3604 298.85 112.16 301.6 121.13Z" fill="#353A66"/>
<path d="M316.67 120.33C316.67 120.33 329.23 112.12 337.48 100.19C337.48 100.19 322.13 112.7 316.67 120.33Z" fill="#353A66"/>
<path d="M286.619 82.7201L288.709 86.9408C288.769 87.0608 288.889 87.1503 289.009 87.1703L293.669 87.8402C294.009 87.8902 294.139 88.3007 293.899 88.5307L290.529 91.8207C290.429 91.9207 290.389 92.0501 290.409 92.1801L291.209 96.8207C291.269 97.1507 290.919 97.4104 290.619 97.2504L286.459 95.06C286.339 94.99 286.199 94.99 286.079 95.06L281.909 97.2504C281.609 97.4104 281.259 97.1507 281.319 96.8207L282.119 92.1801C282.139 92.0501 282.099 91.9207 282.009 91.8207L278.629 88.5307C278.389 88.3007 278.529 87.8902 278.849 87.8402L283.519 87.1703C283.649 87.1503 283.759 87.0608 283.819 86.9408L285.909 82.7201C286.049 82.4201 286.479 82.4201 286.619 82.7201Z" fill="#FFB025"/>
<path d="M281.91 97.25L282.109 97.1396L289.249 87.2002L289.019 87.1602C288.889 87.1502 288.769 87.0604 288.709 86.9404L288.029 85.5498L281.859 93.6504L281.319 96.8203C281.259 97.1503 281.61 97.41 281.91 97.25Z" fill="#FED150"/>
<path d="M286.45 95.0596L286.62 95.1396L291.66 87.5498L290.7 87.4102L284.85 95.71L286.069 95.0596C286.199 94.9896 286.34 94.9896 286.45 95.0596Z" fill="#FED150"/>
<path d="M281.92 88.8496C281.99 88.7696 282.11 88.4805 282.11 88.4805C282.11 88.4805 282.24 88.7601 282.32 88.8301C282.39 88.9101 282.681 89.0303 282.681 89.0303C282.681 89.0303 282.4 89.1505 282.32 89.2305C282.25 89.3105 282.141 89.5996 282.141 89.5996C282.141 89.5996 282.001 89.3102 281.931 89.2402C281.851 89.1702 281.561 89.0498 281.561 89.0498C281.561 89.0498 281.85 88.9196 281.92 88.8496Z" fill="#F7F7FC"/>
<path d="M344.639 163.161L346.719 167.38C346.789 167.5 346.899 167.591 347.029 167.611L351.689 168.281C352.019 168.341 352.149 168.741 351.919 168.981L348.539 172.27C348.449 172.36 348.399 172.5 348.429 172.63L349.219 177.27C349.279 177.6 348.929 177.851 348.639 177.691L344.469 175.5C344.349 175.44 344.209 175.44 344.089 175.5L339.929 177.691C339.629 177.851 339.279 177.6 339.339 177.27L340.129 172.63C340.159 172.5 340.109 172.36 340.019 172.27L336.649 168.981C336.399 168.751 336.539 168.341 336.869 168.281L341.529 167.611C341.669 167.591 341.779 167.51 341.839 167.38L343.919 163.161C344.069 162.861 344.489 162.861 344.639 163.161Z" fill="#FFB025"/>
<path d="M339.921 177.69L340.131 177.58L347.261 167.64L347.031 167.61C346.901 167.58 346.781 167.5 346.731 167.38L346.041 166L339.881 174.1L339.331 177.26C339.271 177.59 339.621 177.85 339.921 177.69Z" fill="#FED150"/>
<path d="M344.47 175.5L344.64 175.59L349.669 167.99L348.709 167.85L342.859 176.14L344.089 175.5C344.209 175.44 344.35 175.44 344.47 175.5Z" fill="#FED150"/>
<path d="M339.93 169.29C340.01 169.21 340.12 168.92 340.12 168.92C340.12 168.92 340.25 169.2 340.33 169.28C340.41 169.35 340.7 169.47 340.7 169.47C340.7 169.47 340.41 169.6 340.34 169.68C340.27 169.75 340.15 170.04 340.15 170.04C340.15 170.04 340.02 169.76 339.94 169.69C339.87 169.61 339.58 169.5 339.58 169.5C339.58 169.5 339.86 169.36 339.93 169.29Z" fill="#F7F7FC"/>
<path d="M274.69 166.05L275.93 168.58C275.96 168.65 276.03 168.7 276.11 168.71L278.89 169.12C279.09 169.14 279.17 169.38 279.03 169.52L277.01 171.49C276.95 171.54 276.93 171.62 276.94 171.7L277.42 174.47C277.45 174.67 277.24 174.821 277.07 174.731L274.57 173.42C274.5 173.38 274.42 173.38 274.35 173.42L271.86 174.731C271.68 174.821 271.47 174.66 271.51 174.47L271.98 171.7C272 171.62 271.97 171.54 271.91 171.49L269.9 169.52C269.75 169.38 269.83 169.14 270.03 169.12L272.81 168.71C272.89 168.7 272.96 168.64 272.99 168.58L274.24 166.05C274.34 165.87 274.59 165.87 274.69 166.05Z" fill="#FFB025"/>
<path d="M271.87 174.73L271.991 174.66L276.25 168.73L276.11 168.71C276.04 168.7 275.971 168.64 275.931 168.58L275.52 167.75L271.84 172.58L271.52 174.47C271.48 174.66 271.7 174.82 271.87 174.73Z" fill="#FED150"/>
<path d="M274.581 173.42L274.671 173.47L277.681 168.94L277.111 168.85L273.621 173.81L274.351 173.42C274.421 173.38 274.511 173.38 274.581 173.42Z" fill="#FED150"/>
<path d="M271.87 169.72C271.92 169.67 271.98 169.5 271.98 169.5C271.98 169.5 272.07 169.66 272.11 169.71C272.15 169.75 272.32 169.82 272.32 169.82C272.32 169.82 272.16 169.9 272.11 169.94C272.07 169.98 272 170.16 272 170.16C272 170.16 271.93 169.99 271.88 169.95C271.84 169.9 271.66 169.84 271.66 169.84C271.66 169.84 271.83 169.75 271.87 169.72Z" fill="#F7F7FC"/>
<path d="M141.371 185.3C141.371 185.3 136.981 189.33 142.201 192.89C147.411 196.46 170.731 179.87 174.301 170.66C176.031 166.2 178.421 135.81 178.421 135.81C178.421 135.81 178.691 124.29 173.751 131.7C173.751 131.7 172.111 138.29 173.211 142.13C174.301 145.97 165.801 164.08 165.801 164.08C165.801 164.08 142.331 181.92 141.371 185.3Z" fill="#E28C71"/>
<path d="M134.38 296.81C137.38 301.7 140.569 303.3 139.529 299.9C138.489 296.45 138.719 296.11 139.549 295.57C150.089 288.79 172.08 293.9 184.33 281.77L170.56 269.3C168.52 270.83 166.69 272.06 165.18 272.76C153.9 278.11 131.37 291.88 134.38 296.81Z" fill="#EE9D7F"/>
<path d="M134.899 293.44C134.899 293.44 132.009 295.33 136.129 299.4C140.239 303.4 140.739 301.9 139.299 299.1C137.879 296.32 134.749 296.34 134.899 293.44Z" fill="#7585F8"/>
<path d="M142.109 157.31C142.109 157.31 140.24 152.771 135.75 153.951C123.14 157.251 103.21 169.151 107.43 187.661C112.98 212.011 103.209 205.94 99.5493 211.31C90.5193 224.5 109.999 240.88 126.609 228.81C135.839 222.12 130.95 201.93 133.31 197.09C135.67 192.28 140.42 190.831 141.08 182.691C141.73 174.541 143.13 164.311 143.89 162.191C144.62 160.051 143.769 157.91 142.109 157.31Z" fill="#353A66"/>
<path d="M141.079 182.69C141.399 178.74 141.859 174.329 142.389 170.559C140.709 170.289 140.179 173.29 137.669 173.24C137.669 173.24 126.289 171.99 128.839 175.25C131.339 178.5 125.899 189.289 119.259 189.349C112.619 189.419 108.169 202.35 114.009 205.78C119.859 209.18 117.21 215.61 112.45 217.36C102.45 220.98 109.999 234.11 121.819 231.5C140.099 224.96 130.749 205.489 134.789 200.429C134.869 200.339 132.679 198.07 132.749 197.98C132.979 197.67 133.169 197.399 133.309 197.089C135.669 192.269 140.419 190.83 141.079 182.69Z" fill="#353A66"/>
<path d="M160.521 222.429C160.521 222.429 156.541 220.729 158.341 204.759C159.181 197.139 162.101 196.61 155.781 188.28C149.241 179.67 137.451 176.13 133.701 181.7C126.661 192.19 129.351 197.38 130.011 204.67C130.411 208.9 134.041 217 128.301 227.74L160.521 222.429Z" fill="#EE9D7F"/>
<path d="M125.59 226.52C125.59 226.52 147.13 229.16 160.52 222.43C160.52 222.43 165.9 198.76 157.76 191.07C157.76 191.07 151.03 195.14 145.57 187.42C141.15 181.19 135.57 179.95 135.57 179.95C135.57 179.95 133.39 181.05 131.82 182.32C129.16 184.44 128.26 187.12 128.26 187.12L125.59 226.52Z" fill="#FCDCDA"/>
<path d="M133.68 164.58C133.68 164.58 139.07 174.45 137.47 178.57C136.56 180.91 148.12 185.51 146.81 183.03C144.38 178.46 144.779 176.51 147.089 172.54L133.68 164.58Z" fill="#E67052"/>
<path d="M142.98 157.361C146.72 160.541 151.44 175.06 147.94 178.5C146.42 179.99 139.59 181.201 135.07 172.491C133.61 169.661 130.73 165.051 133.08 159.911C134.15 157.561 138.63 153.671 142.98 157.361Z" fill="#EE9D7F"/>
<path d="M145.681 157.84C146.151 159.8 146.301 160.96 141.751 160.77C136.171 160.57 137.341 164.4 138.001 165.72C139.881 169.52 133.081 166 135.371 170.55C137.681 175.09 131.191 169.83 130.641 169.17C130.061 168.51 128.021 165.56 130.751 158.68C133.481 151.76 144.241 151.81 145.681 157.84Z" fill="#353A66"/>
<path d="M82.9294 244.85C79.8894 249.74 79.7094 253.651 82.1994 251.361C84.6694 249.071 85.039 249.19 85.779 249.87C95.119 258.61 98.5491 283.58 112.939 292.25L118.499 273.361C116.509 271.751 114.839 270.251 113.729 268.911C105.329 258.891 85.9894 239.95 82.9294 244.85Z" fill="#EE9D7F"/>
<path d="M85.9194 244.23C85.9194 244.23 83.3296 241.85 81.4096 247.61C79.4796 253.34 80.9095 253.35 82.7495 250.86C84.5695 248.37 83.4494 245.09 85.9194 244.23Z" fill="#7585F8"/>
<path d="M125.59 226.52C125.59 226.52 139.56 228.24 152 225.37C155.3 223.21 146.51 219.64 141.85 219.33C136.51 218.98 141.14 213.02 147.36 212.85C153.59 212.67 156.35 208.28 150.41 209.04C144.5 209.8 140.28 204.39 141.86 199.01C143.43 193.61 140.23 188.26 140.23 188.26L128.37 186.84C128.3 187 128.26 187.12 128.26 187.12L125.59 226.52Z" fill="#EFBEBD"/>
<path d="M132.84 227.39C132.84 227.39 166.45 286.84 182.91 283.51C199.37 280.18 163.37 226.59 160.84 220.89C160.84 220.89 143.1 229.46 132.84 227.39Z" fill="#EF9C16"/>
<path d="M141.801 284.75L146.861 293.13C146.861 293.13 178.271 295.51 186.221 281.32L175.031 265.77L141.801 284.75Z" fill="#EF9C16"/>
<path d="M125.7 224.17C125.7 224.17 103.539 282.31 115.519 295.43C127.499 308.5 150.44 240.01 153.7 224.17C153.7 224.17 129.36 230.71 125.7 224.17Z" fill="#EF9C16"/>
<path d="M97.9497 251.05L91.0996 260.71C91.0996 260.71 105.519 296.04 119.229 297.18L126.229 276.21L97.9497 251.05Z" fill="#EF9C16"/>
<path d="M139.781 188.91C139.781 188.91 143.501 184.25 137.801 181.53C132.101 178.8 111.601 198.77 109.491 208.42C108.461 213.1 110.771 243.49 110.771 243.49C110.771 243.49 112.271 254.92 116.011 246.83C116.011 246.83 116.621 240.08 114.951 236.45C113.271 232.82 118.911 213.62 118.911 213.62C118.911 213.62 139.351 192.39 139.781 188.91Z" fill="#E28C71"/>
<path d="M282.57 326C285.31 323.9 285.28 323.5 284.84 322.6C284.44 321.8 283.941 321 283.391 320.2L288.86 318.2C289.5 320.1 289.931 321.9 290.041 323.3C289.601 323.7 285.97 327 282.57 326Z" fill="#EE9D7F"/>
<path d="M290.05 323.3C290.07 323.3 290.13 323.2 290.13 323.2C292.09 327.9 285.26 329.1 281.43 329C277.6 328.8 282.57 326 282.57 326C285.98 327 289.6 323.7 290.05 323.3Z" fill="#7585F8"/>
<path d="M250.541 226.27C250.541 226.27 250.141 237.56 251.721 244.36C257.021 267.19 258.511 264.57 260.421 270.85C263.641 281.53 272.741 307.9 283.411 321.3C284.681 322.9 290.741 320.1 290.561 317.5C289.351 300.7 289.071 293.12 281.711 276.03C281.711 276.03 285.481 261.89 285.491 255.15C285.501 247.21 284.641 228.26 279.041 220.36L250.541 226.27Z" fill="#644FC1"/>
<path d="M249.801 328.6C252.931 327.2 253.001 326.7 252.751 325.7C252.531 324.9 252.211 324 251.841 323.1L257.611 322.3C257.821 324.3 257.881 326.2 257.681 327.6C257.151 327.9 252.921 330.3 249.801 328.6Z" fill="#EE9D7F"/>
<path d="M257.679 327.6C257.709 327.5 257.779 327.5 257.779 327.5C258.699 332.5 251.779 332.2 248.059 331.2C244.359 330.3 249.799 328.6 249.799 328.6C252.919 330.3 257.149 327.9 257.679 327.6Z" fill="#7585F8"/>
<path d="M264.84 133.11C264.84 133.11 257.36 123.35 261.27 123.96C265.18 124.59 266.56 126.5 268.53 132.47L264.84 133.11Z" fill="#FFAA83"/>
<path d="M257.221 186.93C257.061 189.08 258.751 195.01 263.141 193.08C270.111 190.01 278.361 171.281 279.151 165.741C279.951 160.201 268.521 131.62 268.521 131.62C268.521 131.62 265.501 130.411 264.191 133.321L266.111 164.821C266.111 164.821 257.771 179.54 257.221 186.93Z" fill="#FCDCDA"/>
<path d="M239.64 224.34C239.64 224.34 236.85 235.29 236.95 242.27C237.31 265.7 239.32 263.46 239.84 270C240.74 281.13 244.02 308.8 251.63 324.2C252.53 326 259.05 324.5 259.41 322C261.78 305.3 263.13 297.85 259.56 279.57C259.56 279.57 266.23 266.56 267.67 259.98C269.36 252.22 272.54 233.52 268.73 224.6L239.64 224.34Z" fill="#8D75F7"/>
<path d="M249.96 176.48C244.34 181.01 239.75 191.77 238.31 226.71C237.99 234.39 282.52 235.14 282.49 227.46C282.38 206.97 278.69 198.66 272.38 180.36C270.67 175.39 261.08 167.47 249.96 176.48Z" fill="#FCDCDA"/>
<path d="M233.119 130.79C233.119 130.79 239.059 122.66 235.389 124.14C231.729 125.63 229.949 124.731 229.379 130.991L233.119 130.79Z" fill="#FFAA83"/>
<path d="M252.69 181.5C253.34 183.54 253.03 189.71 248.32 188.8C240.84 187.39 228.569 171.01 226.549 165.8C224.519 160.58 229.2 130.16 229.2 130.16C229.2 130.16 231.889 128.299 233.799 130.849L239.049 161.96C239.049 161.96 250.5 174.42 252.69 181.5Z" fill="#FCDCDA"/>
<path d="M253.31 142.741C248.53 143.501 242.72 147.61 243.01 157.09C243.29 166.55 243.04 166.751 239.98 170.321C232.12 179.501 251.56 182.731 244.94 191.241C216.6 227.781 282.51 221.12 279.64 212.56C274.11 196.05 285.82 199.63 283.21 187.25C282.16 182.34 289.18 176.65 279.51 170.68C276.33 168.71 281.63 157.42 273.97 155.47C266.31 153.5 271.69 139.781 253.31 142.741Z" fill="#353A66"/>
<path d="M301.079 230.05L294.629 230.12L299.849 239.55L304.039 240.35L301.079 230.05Z" fill="#FCDCDA"/>
<path d="M31.3794 151.75L24.9395 151.42L30.5493 142.21L36.1694 147.58L31.3794 151.75Z" fill="#353A66"/>
<path d="M57.6689 165.45L55.8989 159.25L48.1992 166.8L48.519 171.04L57.6689 165.45Z" fill="#E03D51"/>
<path d="M362.16 207.24L360.39 201.04L352.689 208.59L353.02 212.83L362.16 207.24Z" fill="#353A66"/>
<path d="M353.521 224.16L347.07 224.21L352.3 233.65L356.48 234.46L353.521 224.16Z" fill="#FCDCDA"/>
<path d="M28.0898 124.45L32.5801 124.22L28.6602 117.81L24.75 121.55L28.0898 124.45Z" fill="#353A66"/>
<path d="M331.049 216.87L329.35 210.91L321.939 218.17L322.259 222.25L331.049 216.87Z" fill="#E03D51"/>
<path d="M235.92 65.6201L229.471 65.6797L234.701 75.1104L238.88 75.9199L235.92 65.6201Z" fill="#FCDCDA"/>
<path d="M261.871 71.46L260.09 65.2598L252.391 72.7998L252.721 77.0498L261.871 71.46Z" fill="#353A66"/>
<path d="M288.36 59.7197L281.92 59.7803L287.14 69.2197L291.32 70.0195L288.36 59.7197Z" fill="#FCDCDA"/>
<path d="M251.331 46.7695L249.641 40.8096L242.221 48.0703L242.541 52.1504L251.331 46.7695Z" fill="#E03D51"/>
</svg>
