<svg width="411" height="310" viewBox="0 0 411 310" fill="none" xmlns="http://www.w3.org/2000/svg">
<rect width="411" height="310" fill="#F5F5F5"/>
<path d="M5.79266 51.848C5.79266 52.004 5.75366 52.109 5.67566 52.164C5.59766 52.227 5.48766 52.258 5.34766 52.258C4.97966 52.258 4.71466 52.16 4.55066 51.965C4.39466 51.77 4.27661 51.512 4.19861 51.191C4.17561 51.082 4.15166 50.973 4.12866 50.863C4.10466 50.746 4.08564 50.633 4.06964 50.523C4.05464 50.422 4.03864 50.352 4.02264 50.312C4.00764 50.273 3.99162 50.199 3.97662 50.09C3.88262 50.316 3.76563 50.555 3.62463 50.805C3.49163 51.047 3.33564 51.273 3.15564 51.484C2.97664 51.688 2.77263 51.855 2.54663 51.988C2.32763 52.121 2.08564 52.188 1.81964 52.188C1.53864 52.188 1.30464 52.121 1.11664 51.988C0.929638 51.848 0.780631 51.676 0.671631 51.473C0.569631 51.262 0.495608 51.031 0.448608 50.781C0.409608 50.531 0.390625 50.293 0.390625 50.066C0.390625 49.535 0.440664 48.961 0.542664 48.344C0.651664 47.719 0.80061 47.098 0.98761 46.48C1.17561 45.855 1.39465 45.258 1.64465 44.688C1.89465 44.109 2.16766 43.605 2.46466 43.176V43.188L2.53461 43.082C2.62061 42.965 2.71864 42.84 2.82764 42.707C2.94464 42.566 3.08161 42.496 3.23761 42.496C3.38661 42.496 3.51563 42.562 3.62463 42.695C3.73363 42.82 3.81164 42.953 3.85864 43.094C4.06164 43.133 4.22662 43.184 4.35162 43.246C4.47662 43.301 4.57365 43.371 4.64465 43.457C4.71465 43.543 4.76161 43.645 4.78461 43.762C4.80861 43.871 4.81964 43.992 4.81964 44.125C4.81964 44.18 4.81964 44.238 4.81964 44.301C4.81964 44.363 4.81565 44.426 4.80865 44.488C4.80065 44.551 4.79663 44.625 4.79663 44.711C4.79663 44.797 4.79663 44.875 4.79663 44.945C4.79663 45.023 4.8086 45.125 4.8316 45.25C4.8626 45.375 4.89466 45.504 4.92566 45.637L5.00763 46.07C5.04663 46.297 5.07762 46.555 5.10162 46.844C5.13262 47.133 5.1676 47.422 5.2066 47.711C5.2376 48.008 5.26966 48.297 5.30066 48.578C5.33166 48.852 5.36265 49.105 5.39465 49.34L5.67566 51.074L5.71063 51.273C5.72663 51.375 5.74163 51.469 5.75763 51.555C5.78063 51.641 5.79266 51.738 5.79266 51.848ZM3.10864 45.109C3.10864 45.094 3.10466 45.07 3.09766 45.039C3.08966 45 3.08161 44.961 3.07361 44.922C2.89461 45.305 2.73363 45.723 2.59363 46.176C2.46063 46.621 2.34766 47.078 2.25366 47.547C2.16766 48.008 2.10163 48.473 2.05463 48.941C2.01563 49.402 1.99561 49.84 1.99561 50.254C1.99561 50.293 1.99561 50.328 1.99561 50.359C1.99561 50.391 1.99963 50.422 2.00763 50.453V50.465C2.19463 50.176 2.35461 49.797 2.48761 49.328C2.62861 48.852 2.74566 48.355 2.83966 47.84C2.93366 47.316 2.99964 46.812 3.03864 46.328C3.08564 45.836 3.10864 45.43 3.10864 45.109ZM11.1837 49.375C11.1837 49.539 11.1556 49.707 11.1016 49.879C11.0466 50.051 10.9836 50.215 10.9136 50.371C10.8196 50.598 10.7066 50.82 10.5736 51.039C10.4406 51.25 10.2886 51.441 10.1166 51.613C9.94464 51.777 9.74964 51.91 9.53064 52.012C9.31164 52.113 9.06566 52.164 8.79266 52.164C8.30866 52.164 7.90563 52.043 7.58563 51.801C7.26563 51.559 7.01161 51.254 6.82361 50.887C6.63661 50.52 6.50366 50.117 6.42566 49.68C6.35466 49.242 6.31964 48.828 6.31964 48.438C6.31964 48.148 6.33161 47.809 6.35461 47.418C6.37861 47.02 6.42164 46.609 6.48364 46.188C6.55464 45.766 6.65161 45.348 6.77661 44.934C6.90961 44.52 7.07764 44.152 7.28064 43.832C7.48364 43.504 7.72965 43.238 8.01965 43.035C8.31565 42.832 8.66761 42.73 9.07361 42.73C9.15961 42.73 9.28461 42.746 9.44861 42.777C9.61261 42.809 9.77263 42.855 9.92963 42.918C10.0936 42.973 10.2336 43.051 10.3516 43.152C10.4766 43.246 10.5386 43.355 10.5386 43.48C10.5386 43.598 10.4836 43.688 10.3746 43.75C10.2726 43.812 10.1476 43.859 9.99963 43.891C9.85863 43.914 9.71063 43.93 9.55463 43.938C9.40563 43.938 9.28461 43.938 9.19061 43.938H8.97961C8.76161 44.133 8.58161 44.422 8.44061 44.805C8.30061 45.18 8.19061 45.582 8.11261 46.012C8.03461 46.441 7.97961 46.867 7.94861 47.289C7.91761 47.703 7.90161 48.043 7.90161 48.309C7.90161 48.684 7.92964 49.055 7.98364 49.422C8.04664 49.781 8.16766 50.121 8.34766 50.441C8.38666 50.512 8.44066 50.594 8.51166 50.688C8.58966 50.773 8.67565 50.816 8.76965 50.816C8.83965 50.816 8.90961 50.758 8.97961 50.641C9.05861 50.523 9.12861 50.387 9.19061 50.23C9.25361 50.074 9.30463 49.922 9.34363 49.773C9.38263 49.625 9.40966 49.516 9.42566 49.445C9.43366 49.414 9.43762 49.379 9.43762 49.34C9.43762 49.301 9.43762 49.262 9.43762 49.223C9.43762 49.152 9.43762 49.086 9.43762 49.023C9.44462 48.953 9.45666 48.898 9.47266 48.859C9.52666 48.727 9.59765 48.637 9.68365 48.59C9.77665 48.543 9.89064 48.52 10.0226 48.52C10.1406 48.52 10.2656 48.535 10.3976 48.566C10.5306 48.598 10.6556 48.648 10.7726 48.719C10.8906 48.789 10.9876 48.879 11.0656 48.988C11.1446 49.098 11.1837 49.227 11.1837 49.375ZM16.3397 49.375C16.3397 49.539 16.3116 49.707 16.2576 49.879C16.2026 50.051 16.1406 50.215 16.0696 50.371C15.9766 50.598 15.8626 50.82 15.7296 51.039C15.5976 51.25 15.4446 51.441 15.2726 51.613C15.1016 51.777 14.9056 51.91 14.6876 52.012C14.4686 52.113 14.2226 52.164 13.9486 52.164C13.4646 52.164 13.0616 52.043 12.7416 51.801C12.4216 51.559 12.1676 51.254 11.9796 50.887C11.7926 50.52 11.6596 50.117 11.5816 49.68C11.5116 49.242 11.4766 48.828 11.4766 48.438C11.4766 48.148 11.4877 47.809 11.5117 47.418C11.5347 47.02 11.5776 46.609 11.6406 46.188C11.7106 45.766 11.8087 45.348 11.9337 44.934C12.0657 44.52 12.2336 44.152 12.4376 43.832C12.6406 43.504 12.8867 43.238 13.1757 43.035C13.4727 42.832 13.8236 42.73 14.2296 42.73C14.3156 42.73 14.4406 42.746 14.6046 42.777C14.7696 42.809 14.9296 42.855 15.0856 42.918C15.2496 42.973 15.3906 43.051 15.5076 43.152C15.6326 43.246 15.6946 43.355 15.6946 43.48C15.6946 43.598 15.6406 43.688 15.5306 43.75C15.4296 43.812 15.3046 43.859 15.1556 43.891C15.0156 43.914 14.8666 43.93 14.7106 43.938C14.5616 43.938 14.4407 43.938 14.3477 43.938H14.1367C13.9177 44.133 13.7377 44.422 13.5977 44.805C13.4567 45.18 13.3477 45.582 13.2697 46.012C13.1907 46.441 13.1366 46.867 13.1046 47.289C13.0736 47.703 13.0587 48.043 13.0587 48.309C13.0587 48.684 13.0856 49.055 13.1406 49.422C13.2026 49.781 13.3237 50.121 13.5037 50.441C13.5427 50.512 13.5977 50.594 13.6677 50.688C13.7457 50.773 13.8317 50.816 13.9257 50.816C13.9957 50.816 14.0657 50.758 14.1367 50.641C14.2147 50.523 14.2847 50.387 14.3477 50.23C14.4097 50.074 14.4606 49.922 14.4996 49.773C14.5386 49.625 14.5656 49.516 14.5816 49.445C14.5896 49.414 14.5936 49.379 14.5936 49.34C14.5936 49.301 14.5936 49.262 14.5936 49.223C14.5936 49.152 14.5936 49.086 14.5936 49.023C14.6016 48.953 14.6127 48.898 14.6287 48.859C14.6837 48.727 14.7537 48.637 14.8397 48.59C14.9337 48.543 15.0466 48.52 15.1796 48.52C15.2966 48.52 15.4216 48.535 15.5546 48.566C15.6876 48.598 15.8116 48.648 15.9296 48.719C16.0466 48.789 16.1447 48.879 16.2227 48.988C16.3007 49.098 16.3397 49.227 16.3397 49.375ZM21.4016 49.855C21.4016 50.09 21.3356 50.332 21.2026 50.582C21.0776 50.832 20.9136 51.062 20.7106 51.273C20.5076 51.477 20.2726 51.645 20.0076 51.777C19.7496 51.91 19.4916 51.977 19.2336 51.977C18.8666 51.977 18.5506 51.906 18.2846 51.766C18.0196 51.617 17.7886 51.422 17.5936 51.18C17.3976 50.93 17.2376 50.648 17.1126 50.336C16.9956 50.023 16.9016 49.703 16.8316 49.375C16.7616 49.039 16.7106 48.707 16.6796 48.379C16.6556 48.043 16.6447 47.738 16.6447 47.465C16.6447 47.23 16.6556 46.953 16.6796 46.633C16.7106 46.312 16.7576 45.98 16.8196 45.637C16.8906 45.293 16.9836 44.953 17.1016 44.617C17.2186 44.281 17.3626 43.98 17.5346 43.715C17.7146 43.449 17.9257 43.234 18.1677 43.07C18.4177 42.906 18.7026 42.824 19.0226 42.824C19.2726 42.824 19.4956 42.875 19.6906 42.977C19.8946 43.078 20.0616 43.215 20.1946 43.387C20.3356 43.551 20.4407 43.742 20.5117 43.961C20.5897 44.18 20.6287 44.406 20.6287 44.641C20.6287 44.945 20.5587 45.277 20.4177 45.637C20.2767 45.996 20.0936 46.344 19.8666 46.68C19.6476 47.016 19.3976 47.32 19.1166 47.594C18.8436 47.859 18.5696 48.062 18.2966 48.203C18.3116 48.344 18.3436 48.551 18.3906 48.824C18.4376 49.09 18.4996 49.355 18.5776 49.621C18.6636 49.887 18.7616 50.117 18.8706 50.312C18.9876 50.508 19.1246 50.605 19.2806 50.605C19.3586 50.605 19.4256 50.582 19.4796 50.535C19.5426 50.488 19.5977 50.426 19.6447 50.348C19.6907 50.27 19.7297 50.184 19.7617 50.09C19.8007 49.996 19.8356 49.906 19.8666 49.82L19.9376 49.656C19.9526 49.633 19.9606 49.617 19.9606 49.609C19.9686 49.602 19.9766 49.59 19.9836 49.574C20.0386 49.473 20.0897 49.379 20.1367 49.293C20.1907 49.207 20.2656 49.133 20.3586 49.07H20.3477C20.3787 49.039 20.4096 49.023 20.4406 49.023C20.4796 49.016 20.5156 49.012 20.5466 49.012C20.6326 49.012 20.7266 49.039 20.8276 49.094C20.9296 49.148 21.0226 49.219 21.1086 49.305C21.1946 49.383 21.2656 49.473 21.3196 49.574C21.3746 49.668 21.4016 49.762 21.4016 49.855ZM19.0816 44.688C19.0816 44.609 19.0776 44.527 19.0696 44.441C19.0616 44.355 19.0427 44.281 19.0117 44.219C18.9017 44.352 18.8046 44.512 18.7186 44.699C18.6406 44.879 18.5737 45.07 18.5197 45.273C18.4647 45.469 18.4177 45.668 18.3787 45.871C18.3477 46.074 18.3237 46.262 18.3087 46.434C18.5117 46.191 18.6907 45.918 18.8477 45.613C19.0037 45.301 19.0816 44.992 19.0816 44.688ZM23.5696 48.953C23.5696 49.328 23.5657 49.672 23.5587 49.984C23.5587 50.297 23.5656 50.641 23.5816 51.016L23.7927 50.863L23.9216 50.781C24.3046 50.477 24.6367 50.105 24.9177 49.668C25.2067 49.223 25.4446 48.75 25.6326 48.25C25.8196 47.75 25.9567 47.238 26.0427 46.715C26.1367 46.184 26.1837 45.68 26.1837 45.203C26.1837 45.109 26.1796 44.98 26.1716 44.816C26.1716 44.645 26.1556 44.477 26.1246 44.312C26.0936 44.148 26.0466 44.008 25.9836 43.891C25.9216 43.766 25.8317 43.703 25.7147 43.703C25.5267 43.703 25.3356 43.816 25.1406 44.043C24.9446 44.27 24.7617 44.539 24.5897 44.852C24.4257 45.164 24.2767 45.48 24.1447 45.801C24.0117 46.113 23.9136 46.359 23.8516 46.539C23.8516 46.547 23.8477 46.551 23.8397 46.551C23.8397 46.551 23.8397 46.555 23.8397 46.562V46.574C23.7927 46.684 23.7416 46.801 23.6876 46.926C23.6406 47.051 23.6086 47.168 23.5936 47.277C23.5776 47.387 23.5657 47.512 23.5587 47.652C23.5507 47.785 23.5466 47.926 23.5466 48.074C23.5466 48.152 23.5466 48.23 23.5466 48.309C23.5546 48.379 23.5587 48.445 23.5587 48.508C23.5587 48.594 23.5587 48.676 23.5587 48.754C23.5657 48.824 23.5696 48.891 23.5696 48.953ZM24.2147 59.664C24.2147 59.836 24.1676 59.953 24.0736 60.016C23.9796 60.078 23.8546 60.109 23.6986 60.109C23.5116 60.109 23.3046 60.078 23.0776 60.016C22.8516 59.961 22.6716 59.855 22.5386 59.699C22.4996 59.645 22.4606 59.484 22.4216 59.219C22.3906 58.953 22.3586 58.641 22.3276 58.281C22.2966 57.93 22.2696 57.562 22.2456 57.18C22.2226 56.805 22.1987 56.473 22.1757 56.184L22.1287 55.562C22.0347 53.891 21.9876 52.219 21.9876 50.547C21.9876 49.57 22.0036 48.613 22.0346 47.676C22.0736 46.73 22.1126 45.773 22.1516 44.805L22.1986 43.574C22.1986 43.449 22.1986 43.328 22.1986 43.211C22.2066 43.086 22.2226 42.965 22.2456 42.848C22.2846 42.746 22.3317 42.668 22.3867 42.613C22.4487 42.551 22.5466 42.52 22.6796 42.52C23.0156 42.52 23.2617 42.621 23.4177 42.824C23.5737 43.02 23.6636 43.262 23.6876 43.551C23.9376 43.207 24.2336 42.934 24.5776 42.73C24.9296 42.527 25.3316 42.426 25.7846 42.426C26.1676 42.426 26.4876 42.512 26.7456 42.684C27.0116 42.855 27.2227 43.078 27.3787 43.352C27.5347 43.617 27.6446 43.918 27.7066 44.254C27.7766 44.582 27.8116 44.906 27.8116 45.227C27.8116 45.844 27.7576 46.461 27.6476 47.078C27.5386 47.688 27.3666 48.281 27.1326 48.859C26.9056 49.43 26.6166 49.973 26.2656 50.488C25.9136 50.996 25.4996 51.449 25.0226 51.848C24.9606 51.902 24.8867 51.961 24.8007 52.023C24.7147 52.086 24.6246 52.145 24.5306 52.199C24.4376 52.254 24.3396 52.301 24.2376 52.34C24.1446 52.379 24.0586 52.398 23.9796 52.398C23.8946 52.398 23.8196 52.379 23.7576 52.34C23.6946 52.301 23.6406 52.254 23.5936 52.199C23.6086 52.738 23.6286 53.297 23.6516 53.875C23.6836 54.453 23.7186 55.031 23.7576 55.609C23.7966 56.195 23.8436 56.773 23.8976 57.344C23.9606 57.914 24.0346 58.465 24.1206 58.996C24.1446 59.098 24.1636 59.203 24.1796 59.312C24.2026 59.43 24.2147 59.547 24.2147 59.664ZM31.1046 51.707C31.1046 51.793 31.0856 51.867 31.0466 51.93C31.0076 51.984 30.9567 52.027 30.8947 52.059C30.8397 52.09 30.7766 52.109 30.7066 52.117C30.6446 52.133 30.5817 52.141 30.5197 52.141C30.4337 52.141 30.3317 52.129 30.2147 52.105C30.1047 52.09 29.9957 52.062 29.8867 52.023C29.7767 51.984 29.6756 51.938 29.5816 51.883C29.4956 51.82 29.4296 51.746 29.3826 51.66C29.3356 51.582 29.2927 51.438 29.2537 51.227C29.2227 51.008 29.1946 50.758 29.1716 50.477C29.1476 50.188 29.1286 49.883 29.1126 49.562C29.0976 49.234 29.0816 48.922 29.0656 48.625C29.0586 48.328 29.0507 48.062 29.0427 47.828C29.0427 47.586 29.0427 47.406 29.0427 47.289C29.0427 46.742 29.0506 46.215 29.0656 45.707C29.0896 45.191 29.1127 44.664 29.1367 44.125C29.0977 44.125 29.0587 44.129 29.0197 44.137C28.9797 44.145 28.9406 44.148 28.9016 44.148C28.8006 44.164 28.6946 44.176 28.5856 44.184C28.4836 44.191 28.3787 44.195 28.2697 44.195C28.1367 44.195 28.0197 44.172 27.9177 44.125C27.8157 44.078 27.7656 43.973 27.7656 43.809C27.7656 43.613 27.8087 43.457 27.8947 43.34C27.9797 43.223 28.0897 43.133 28.2227 43.07C28.3547 43 28.4996 42.953 28.6556 42.93C28.8116 42.898 28.9646 42.875 29.1126 42.859C29.1366 42.859 29.1516 42.859 29.1596 42.859C29.1676 42.852 29.1836 42.848 29.2066 42.848C29.2146 42.754 29.2226 42.641 29.2296 42.508C29.2376 42.367 29.2457 42.215 29.2537 42.051C29.2617 41.793 29.2726 41.52 29.2886 41.23C29.3046 40.934 29.3196 40.652 29.3356 40.387C29.3516 40.113 29.3707 39.875 29.3947 39.672C29.4177 39.461 29.4407 39.312 29.4647 39.227C29.5037 39.125 29.5466 39.043 29.5936 38.98C29.6476 38.918 29.7457 38.887 29.8867 38.887C30.1987 38.887 30.4406 38.988 30.6126 39.191C30.7846 39.395 30.8706 39.645 30.8706 39.941C30.8706 40.285 30.8586 40.629 30.8356 40.973C30.8196 41.316 30.8046 41.664 30.7886 42.016L30.7537 42.613C30.9487 42.59 31.1447 42.555 31.3397 42.508C31.5267 42.469 31.7146 42.434 31.9016 42.402C32.0976 42.371 32.2847 42.355 32.4647 42.355C32.6207 42.355 32.7416 42.398 32.8276 42.484C32.9136 42.562 32.9566 42.68 32.9566 42.836C32.9566 43.008 32.9256 43.176 32.8626 43.34C32.8006 43.504 32.6906 43.629 32.5346 43.715H32.5466C32.5156 43.73 32.4216 43.754 32.2656 43.785C32.1086 43.809 31.9296 43.832 31.7266 43.855C31.5306 43.879 31.3356 43.902 31.1406 43.926C30.9526 43.949 30.8116 43.965 30.7186 43.973H30.7066C30.6906 44.41 30.6796 44.844 30.6716 45.273C30.6636 45.695 30.6596 46.125 30.6596 46.562C30.6596 47.164 30.6756 47.805 30.7066 48.484C30.7456 49.156 30.8087 49.797 30.8947 50.406L30.9876 50.934C31.0196 51.066 31.0466 51.199 31.0696 51.332C31.0936 51.457 31.1046 51.582 31.1046 51.707ZM37.4566 49.855C37.4566 50.09 37.3906 50.332 37.2576 50.582C37.1326 50.832 36.9686 51.062 36.7656 51.273C36.5616 51.477 36.3276 51.645 36.0616 51.777C35.8046 51.91 35.5466 51.977 35.2886 51.977C34.9216 51.977 34.6047 51.906 34.3397 51.766C34.0737 51.617 33.8436 51.422 33.6476 51.18C33.4526 50.93 33.2927 50.648 33.1677 50.336C33.0507 50.023 32.9567 49.703 32.8867 49.375C32.8157 49.039 32.7656 48.707 32.7336 48.379C32.7106 48.043 32.6986 47.738 32.6986 47.465C32.6986 47.23 32.7106 46.953 32.7336 46.633C32.7656 46.312 32.8116 45.98 32.8746 45.637C32.9446 45.293 33.0386 44.953 33.1556 44.617C33.2726 44.281 33.4177 43.98 33.5897 43.715C33.7697 43.449 33.9797 43.234 34.2227 43.07C34.4727 42.906 34.7576 42.824 35.0776 42.824C35.3276 42.824 35.5506 42.875 35.7456 42.977C35.9486 43.078 36.1166 43.215 36.2496 43.387C36.3906 43.551 36.4956 43.742 36.5656 43.961C36.6446 44.18 36.6837 44.406 36.6837 44.641C36.6837 44.945 36.6127 45.277 36.4727 45.637C36.3317 45.996 36.1476 46.344 35.9216 46.68C35.7026 47.016 35.4526 47.32 35.1716 47.594C34.8976 47.859 34.6246 48.062 34.3516 48.203C34.3666 48.344 34.3976 48.551 34.4446 48.824C34.4916 49.09 34.5546 49.355 34.6326 49.621C34.7186 49.887 34.8157 50.117 34.9257 50.312C35.0427 50.508 35.1796 50.605 35.3356 50.605C35.4136 50.605 35.4796 50.582 35.5346 50.535C35.5976 50.488 35.6516 50.426 35.6986 50.348C35.7456 50.27 35.7846 50.184 35.8156 50.09C35.8546 49.996 35.8906 49.906 35.9216 49.82L35.9916 49.656C36.0076 49.633 36.0156 49.617 36.0156 49.609C36.0226 49.602 36.0306 49.59 36.0386 49.574C36.0936 49.473 36.1446 49.379 36.1906 49.293C36.2456 49.207 36.3196 49.133 36.4136 49.07H36.4016C36.4336 49.039 36.4646 49.023 36.4956 49.023C36.5346 49.016 36.5696 49.012 36.6016 49.012C36.6876 49.012 36.7806 49.039 36.8826 49.094C36.9836 49.148 37.0776 49.219 37.1636 49.305C37.2496 49.383 37.3196 49.473 37.3746 49.574C37.4296 49.668 37.4566 49.762 37.4566 49.855ZM35.1367 44.688C35.1367 44.609 35.1326 44.527 35.1246 44.441C35.1166 44.355 35.0976 44.281 35.0656 44.219C34.9566 44.352 34.8586 44.512 34.7726 44.699C34.6946 44.879 34.6286 45.07 34.5736 45.273C34.5196 45.469 34.4727 45.668 34.4337 45.871C34.4017 46.074 34.3786 46.262 34.3626 46.434C34.5656 46.191 34.7456 45.918 34.9016 45.613C35.0586 45.301 35.1367 44.992 35.1367 44.688ZM43.2456 51.637C43.2456 51.723 43.2266 51.797 43.1876 51.859C43.1476 51.914 43.0976 51.961 43.0346 52C42.9796 52.031 42.9177 52.055 42.8477 52.07C42.7847 52.086 42.7226 52.094 42.6596 52.094C42.5656 52.094 42.4646 52.082 42.3546 52.059C42.2456 52.035 42.1366 52.004 42.0266 51.965C41.9176 51.918 41.8157 51.863 41.7227 51.801C41.6367 51.73 41.5696 51.652 41.5226 51.566C41.4766 51.48 41.4407 51.375 41.4177 51.25C41.4017 51.117 41.3866 50.984 41.3706 50.852C41.2926 51.039 41.1987 51.223 41.0897 51.402C40.9877 51.582 40.8627 51.742 40.7147 51.883C40.5657 52.016 40.3976 52.121 40.2106 52.199C40.0306 52.285 39.8276 52.328 39.6016 52.328C39.2026 52.328 38.8787 52.234 38.6287 52.047C38.3867 51.859 38.1946 51.625 38.0546 51.344C37.9216 51.055 37.8316 50.742 37.7846 50.406C37.7456 50.062 37.7266 49.734 37.7266 49.422C37.7266 49.164 37.7377 48.871 37.7617 48.543C37.7847 48.215 37.8156 47.879 37.8546 47.535C37.8946 47.191 37.9406 46.859 37.9956 46.539C38.0506 46.211 38.1086 45.922 38.1716 45.672C38.2496 45.383 38.3436 45.066 38.4526 44.723C38.5696 44.371 38.7147 44.047 38.8867 43.75C39.0657 43.445 39.2847 43.188 39.5427 42.977C39.8007 42.766 40.1086 42.648 40.4686 42.625C40.4446 41.992 40.4096 41.41 40.3626 40.879C40.3236 40.34 40.2806 39.789 40.2336 39.227L40.1166 37.926L40.0696 37.457C40.0546 37.332 40.0426 37.207 40.0346 37.082C40.0266 36.949 40.0226 36.82 40.0226 36.695C40.0226 36.516 40.0696 36.391 40.1636 36.32C40.2656 36.25 40.3947 36.215 40.5507 36.215C40.8947 36.215 41.1556 36.266 41.3356 36.367C41.5156 36.469 41.6406 36.605 41.7106 36.777C41.7886 36.949 41.8317 37.152 41.8397 37.387C41.8477 37.613 41.8516 37.859 41.8516 38.125C41.8516 38.297 41.8706 38.492 41.9096 38.711L41.9686 39.145L42.0616 40.34C42.0776 40.527 42.0936 40.715 42.1086 40.902C42.1246 41.09 42.1406 41.277 42.1556 41.465L42.4016 43.984L42.8706 48.695L42.9056 49.129C42.9376 49.449 42.9646 49.781 42.9876 50.125C43.0196 50.469 43.0736 50.809 43.1516 51.145C43.1756 51.23 43.1946 51.312 43.2106 51.391C43.2336 51.469 43.2456 51.551 43.2456 51.637ZM40.5156 44.781C40.5156 44.695 40.5117 44.602 40.5037 44.5C40.5037 44.391 40.5037 44.289 40.5037 44.195V43.879C40.4487 43.957 40.3787 44.066 40.2927 44.207C40.2067 44.34 40.1406 44.461 40.0936 44.57C39.9686 44.844 39.8547 45.195 39.7537 45.625C39.6517 46.047 39.5616 46.492 39.4836 46.961C39.4136 47.422 39.3586 47.875 39.3196 48.32C39.2806 48.758 39.2617 49.125 39.2617 49.422C39.2617 49.531 39.2617 49.656 39.2617 49.797C39.2697 49.938 39.2847 50.082 39.3087 50.23C39.3317 50.371 39.3666 50.508 39.4136 50.641C39.4606 50.773 39.5226 50.883 39.6016 50.969C39.7186 50.82 39.8237 50.594 39.9177 50.289C40.0117 49.977 40.0896 49.625 40.1516 49.234C40.2226 48.836 40.2806 48.418 40.3276 47.98C40.3746 47.543 40.4097 47.121 40.4337 46.715C40.4647 46.301 40.4836 45.926 40.4916 45.59C40.5076 45.246 40.5156 44.977 40.5156 44.781ZM52.6906 47.195C52.6906 47.875 52.6326 48.555 52.5156 49.234C52.4056 49.906 52.1756 50.543 51.8236 51.145C51.7146 51.324 51.5896 51.5 51.4486 51.672C51.3086 51.836 51.1516 51.984 50.9796 52.117C50.8156 52.258 50.6326 52.367 50.4296 52.445C50.2336 52.531 50.0267 52.574 49.8087 52.574C49.4647 52.574 49.1636 52.492 48.9056 52.328C48.6556 52.172 48.4376 51.965 48.2496 51.707C48.0696 51.441 47.9177 51.145 47.7927 50.816C47.6757 50.48 47.5817 50.141 47.5117 49.797C47.4487 49.445 47.4016 49.105 47.3706 48.777C47.3476 48.449 47.3356 48.16 47.3356 47.91C47.3356 47.629 47.3476 47.32 47.3706 46.984C47.3946 46.648 47.4336 46.305 47.4876 45.953C47.5506 45.602 47.6287 45.254 47.7227 44.91C47.8237 44.566 47.9526 44.246 48.1086 43.949C48.2656 43.645 48.4526 43.375 48.6716 43.141C48.8906 42.898 49.1447 42.707 49.4337 42.566V42.578C49.6837 42.445 49.9337 42.379 50.1837 42.379C50.3397 42.379 50.4606 42.414 50.5466 42.484C50.6326 42.547 50.6716 42.656 50.6636 42.812C51.0936 42.891 51.4406 43.098 51.7066 43.434C51.9726 43.77 52.1756 44.16 52.3156 44.605C52.4646 45.051 52.5616 45.508 52.6086 45.977C52.6636 46.445 52.6906 46.852 52.6906 47.195ZM50.0427 44.266C49.9097 44.266 49.7847 44.215 49.6677 44.113C49.5197 44.34 49.3947 44.602 49.2927 44.898C49.1907 45.188 49.1086 45.488 49.0466 45.801C48.9916 46.105 48.9526 46.414 48.9296 46.727C48.9056 47.039 48.8947 47.332 48.8947 47.605C48.8947 47.832 48.9056 48.125 48.9296 48.484C48.9526 48.836 48.9957 49.191 49.0587 49.551C49.1287 49.91 49.2227 50.246 49.3397 50.559C49.4647 50.871 49.6246 51.102 49.8196 51.25C50.0616 51.109 50.2617 50.887 50.4177 50.582C50.5817 50.27 50.7106 49.93 50.8046 49.562C50.8976 49.195 50.9606 48.824 50.9916 48.449C51.0306 48.074 51.0507 47.754 51.0507 47.488C51.0507 47.293 51.0386 47.039 51.0156 46.727C50.9916 46.414 50.9526 46.098 50.8976 45.777C50.8436 45.449 50.7656 45.145 50.6636 44.863C50.5696 44.582 50.4487 44.371 50.3007 44.23C50.2297 44.254 50.1447 44.266 50.0427 44.266ZM54.6367 52.188C54.5197 52.188 54.3906 52.172 54.2496 52.141C54.1166 52.109 53.9876 52.059 53.8626 51.988C53.7456 51.918 53.6447 51.832 53.5587 51.73C53.4797 51.621 53.4406 51.492 53.4406 51.344C53.4406 51.125 53.4487 50.91 53.4647 50.699C53.4877 50.48 53.5116 50.266 53.5346 50.055V50.066L53.6046 49.281C53.6286 49 53.6476 48.691 53.6636 48.355C53.6796 48.02 53.6906 47.68 53.6986 47.336C53.7146 46.984 53.7266 46.641 53.7336 46.305C53.7416 45.969 53.7456 45.66 53.7456 45.379C53.7456 45.215 53.7416 45.051 53.7336 44.887C53.7336 44.715 53.7336 44.543 53.7336 44.371C53.7266 44.223 53.7227 44.059 53.7227 43.879C53.7227 43.691 53.7227 43.52 53.7227 43.363C53.7227 43.199 53.7416 43.066 53.7806 42.965C53.8276 42.855 53.9526 42.801 54.1556 42.801C54.3356 42.801 54.5226 42.848 54.7186 42.941C54.9216 43.035 55.0616 43.168 55.1406 43.34H55.1287C55.1677 43.426 55.1946 43.566 55.2106 43.762C55.2336 43.949 55.2496 44.117 55.2576 44.266C55.3906 44.062 55.5386 43.848 55.7026 43.621C55.8746 43.395 56.0587 43.188 56.2537 43C56.4487 42.805 56.6556 42.645 56.8746 42.52C57.0936 42.395 57.3276 42.332 57.5776 42.332C57.9056 42.332 58.1556 42.414 58.3276 42.578C58.4996 42.742 58.6246 42.949 58.7026 43.199C58.7806 43.441 58.8236 43.703 58.8316 43.984C58.8396 44.258 58.8436 44.508 58.8436 44.734V44.828C58.8436 44.922 58.8396 45.016 58.8316 45.109C58.8316 45.195 58.8156 45.277 58.7846 45.355C58.7616 45.426 58.7147 45.484 58.6447 45.531C58.5817 45.578 58.4916 45.602 58.3746 45.602C58.2496 45.602 58.1166 45.586 57.9766 45.555C57.8356 45.516 57.7026 45.461 57.5776 45.391C57.4606 45.32 57.3586 45.234 57.2726 45.133C57.1876 45.023 57.1406 44.898 57.1326 44.758C57.1326 44.695 57.1326 44.633 57.1326 44.57C57.1326 44.508 57.1367 44.445 57.1447 44.383C57.1447 44.344 57.1447 44.297 57.1447 44.242C57.1517 44.18 57.1556 44.121 57.1556 44.066C56.9056 44.316 56.6836 44.625 56.4876 44.992C56.3006 45.359 56.1287 45.75 55.9727 46.164C55.8237 46.578 55.6946 46.996 55.5856 47.418C55.4766 47.832 55.3826 48.207 55.3046 48.543V48.578C55.2806 48.82 55.2656 49.059 55.2576 49.293C55.2496 49.527 55.2416 49.77 55.2336 50.02C55.2266 50.301 55.2146 50.586 55.1986 50.875C55.1906 51.164 55.1716 51.445 55.1406 51.719C55.1246 51.867 55.0776 51.98 54.9996 52.059C54.9296 52.145 54.8087 52.188 54.6367 52.188ZM20.0306 75.941C20.0306 76.121 19.9766 76.238 19.8666 76.293C19.7656 76.348 19.6406 76.375 19.4916 76.375C19.3586 76.375 19.2266 76.363 19.0936 76.34C18.9686 76.324 18.8476 76.289 18.7296 76.234C18.6206 76.18 18.5226 76.105 18.4376 76.012C18.3586 75.918 18.3046 75.797 18.2726 75.648C18.1636 75.18 18.1016 74.723 18.0856 74.277C18.0696 73.824 18.0616 73.359 18.0616 72.883V71.441C18.0616 70.785 18.0897 70.105 18.1447 69.402C18.1987 68.691 18.2576 68.008 18.3196 67.352C18.3196 67.328 18.3236 67.301 18.3316 67.27C18.3396 67.238 18.3436 67.215 18.3436 67.199C18.3516 67.113 18.3627 67.02 18.3787 66.918C18.3947 66.816 18.4176 66.727 18.4486 66.648C18.4876 66.562 18.5386 66.492 18.6016 66.438C18.6716 66.383 18.7616 66.355 18.8706 66.355C18.9956 66.355 19.1127 66.383 19.2227 66.438C19.3397 66.484 19.4406 66.551 19.5266 66.637C19.6126 66.715 19.6796 66.812 19.7266 66.93C19.7806 67.047 19.8087 67.168 19.8087 67.293C19.8087 67.426 19.8046 67.574 19.7966 67.738C19.7886 67.895 19.7767 68.043 19.7617 68.184C19.7617 68.223 19.7576 68.266 19.7496 68.312C19.7496 68.359 19.7456 68.402 19.7376 68.441C19.8476 68.223 19.9726 67.996 20.1126 67.762C20.2536 67.52 20.4136 67.301 20.5936 67.105C20.7806 66.902 20.9836 66.738 21.2026 66.613C21.4296 66.488 21.6796 66.426 21.9526 66.426C22.1796 66.426 22.3666 66.461 22.5156 66.531C22.6636 66.602 22.7806 66.703 22.8666 66.836C22.9606 66.961 23.0226 67.109 23.0546 67.281C23.0936 67.453 23.1126 67.637 23.1126 67.832C23.1126 68.098 23.1047 68.367 23.0897 68.641C23.0737 68.906 23.0587 69.172 23.0427 69.438C23.0197 69.711 22.9996 69.98 22.9836 70.246C22.9686 70.512 22.9606 70.781 22.9606 71.055C22.9606 71.383 22.9686 71.723 22.9836 72.074C22.9996 72.418 23.0226 72.75 23.0546 73.07C23.0856 73.383 23.1206 73.668 23.1596 73.926C23.1986 74.176 23.2376 74.371 23.2766 74.512C23.3086 74.629 23.3396 74.766 23.3706 74.922C23.4096 75.07 23.4446 75.227 23.4766 75.391C23.5156 75.547 23.5466 75.699 23.5696 75.848C23.5936 75.996 23.6046 76.129 23.6046 76.246C23.6046 76.418 23.5347 76.527 23.3947 76.574C23.2617 76.621 23.1286 76.645 22.9956 76.645C22.8626 76.645 22.7106 76.633 22.5386 76.609C22.3746 76.594 22.2266 76.551 22.0936 76.48C21.9296 76.363 21.8196 76.199 21.7656 75.988C21.7186 75.777 21.6876 75.57 21.6716 75.367L21.6367 75.051C21.6127 74.863 21.5817 74.617 21.5427 74.312C21.5037 74.008 21.4647 73.672 21.4257 73.305C21.3947 72.938 21.3666 72.559 21.3436 72.168C21.3196 71.77 21.3087 71.383 21.3087 71.008C21.3087 70.672 21.3196 70.348 21.3436 70.035C21.3746 69.723 21.4056 69.406 21.4376 69.086C21.4526 68.922 21.4647 68.789 21.4727 68.688C21.4797 68.586 21.4916 68.453 21.5076 68.289C21.3516 68.539 21.1946 68.832 21.0386 69.168C20.8826 69.504 20.7336 69.855 20.5936 70.223C20.4526 70.582 20.3236 70.934 20.2066 71.277C20.0976 71.621 20.0116 71.922 19.9486 72.18L19.8787 72.438C19.8397 72.562 19.8046 72.688 19.7726 72.812C19.7496 72.938 19.7376 73.055 19.7376 73.164C19.7376 73.305 19.7457 73.469 19.7617 73.656C19.7767 73.836 19.7966 74.008 19.8196 74.172C19.8436 74.367 19.8706 74.566 19.9016 74.77C19.9016 74.785 19.9097 74.836 19.9257 74.922C19.9407 75.008 19.9567 75.109 19.9727 75.227C19.9877 75.344 19.9996 75.469 20.0076 75.602C20.0226 75.727 20.0306 75.84 20.0306 75.941ZM29.5936 71.195C29.5936 71.875 29.5347 72.555 29.4177 73.234C29.3087 73.906 29.0776 74.543 28.7266 75.145C28.6166 75.324 28.4916 75.5 28.3516 75.672C28.2106 75.836 28.0546 75.984 27.8826 76.117C27.7186 76.258 27.5346 76.367 27.3316 76.445C27.1366 76.531 26.9296 76.574 26.7106 76.574C26.3666 76.574 26.0657 76.492 25.8087 76.328C25.5587 76.172 25.3396 75.965 25.1516 75.707C24.9726 75.441 24.8196 75.145 24.6946 74.816C24.5776 74.48 24.4836 74.141 24.4136 73.797C24.3516 73.445 24.3046 73.105 24.2726 72.777C24.2496 72.449 24.2376 72.16 24.2376 71.91C24.2376 71.629 24.2496 71.32 24.2726 70.984C24.2966 70.648 24.3356 70.305 24.3906 69.953C24.4526 69.602 24.5306 69.254 24.6246 68.91C24.7266 68.566 24.8547 68.246 25.0117 67.949C25.1677 67.645 25.3546 67.375 25.5736 67.141C25.7926 66.898 26.0466 66.707 26.3356 66.566V66.578C26.5856 66.445 26.8356 66.379 27.0856 66.379C27.2416 66.379 27.3626 66.414 27.4486 66.484C27.5346 66.547 27.5736 66.656 27.5656 66.812C27.9956 66.891 28.3436 67.098 28.6086 67.434C28.8746 67.77 29.0776 68.16 29.2186 68.605C29.3666 69.051 29.4647 69.508 29.5117 69.977C29.5657 70.445 29.5936 70.852 29.5936 71.195ZM26.9446 68.266C26.8116 68.266 26.6876 68.215 26.5696 68.113C26.4216 68.34 26.2966 68.602 26.1946 68.898C26.0936 69.188 26.0116 69.488 25.9486 69.801C25.8946 70.105 25.8546 70.414 25.8316 70.727C25.8086 71.039 25.7966 71.332 25.7966 71.605C25.7966 71.832 25.8086 72.125 25.8316 72.484C25.8546 72.836 25.8976 73.191 25.9606 73.551C26.0306 73.91 26.1246 74.246 26.2416 74.559C26.3666 74.871 26.5267 75.102 26.7227 75.25C26.9647 75.109 27.1636 74.887 27.3196 74.582C27.4836 74.27 27.6126 73.93 27.7066 73.562C27.8006 73.195 27.8627 72.824 27.8947 72.449C27.9337 72.074 27.9526 71.754 27.9526 71.488C27.9526 71.293 27.9407 71.039 27.9177 70.727C27.8947 70.414 27.8547 70.098 27.8007 69.777C27.7457 69.449 27.6676 69.145 27.5656 68.863C27.4726 68.582 27.3516 68.371 27.2026 68.23C27.1326 68.254 27.0466 68.266 26.9446 68.266ZM33.0386 75.707C33.0386 75.793 33.0196 75.867 32.9796 75.93C32.9406 75.984 32.8906 76.027 32.8276 76.059C32.7726 76.09 32.7106 76.109 32.6406 76.117C32.5776 76.133 32.5156 76.141 32.4526 76.141C32.3666 76.141 32.2656 76.129 32.1476 76.105C32.0386 76.09 31.9296 76.062 31.8196 76.023C31.7106 75.984 31.6086 75.938 31.5156 75.883C31.4296 75.82 31.3626 75.746 31.3156 75.66C31.2696 75.582 31.2266 75.438 31.1876 75.227C31.1556 75.008 31.1286 74.758 31.1046 74.477C31.0816 74.188 31.0616 73.883 31.0466 73.562C31.0306 73.234 31.0156 72.922 30.9996 72.625C30.9916 72.328 30.9836 72.062 30.9766 71.828C30.9766 71.586 30.9766 71.406 30.9766 71.289C30.9766 70.742 30.9836 70.215 30.9996 69.707C31.0226 69.191 31.0466 68.664 31.0696 68.125C31.0306 68.125 30.9916 68.129 30.9526 68.137C30.9136 68.145 30.8746 68.148 30.8356 68.148C30.7336 68.164 30.6287 68.176 30.5197 68.184C30.4177 68.191 30.3116 68.195 30.2026 68.195C30.0696 68.195 29.9526 68.172 29.8516 68.125C29.7496 68.078 29.6986 67.973 29.6986 67.809C29.6986 67.613 29.7416 67.457 29.8276 67.34C29.9136 67.223 30.0226 67.133 30.1556 67.07C30.2886 67 30.4337 66.953 30.5897 66.93C30.7457 66.898 30.8976 66.875 31.0466 66.859C31.0696 66.859 31.0856 66.859 31.0936 66.859C31.1016 66.852 31.1166 66.848 31.1406 66.848C31.1476 66.754 31.1556 66.641 31.1636 66.508C31.1716 66.367 31.1796 66.215 31.1876 66.051C31.1946 65.793 31.2067 65.52 31.2227 65.23C31.2377 64.934 31.2537 64.652 31.2697 64.387C31.2847 64.113 31.3046 63.875 31.3276 63.672C31.3516 63.461 31.3746 63.312 31.3976 63.227C31.4376 63.125 31.4796 63.043 31.5266 62.98C31.5816 62.918 31.6796 62.887 31.8196 62.887C32.1326 62.887 32.3746 62.988 32.5466 63.191C32.7186 63.395 32.8046 63.645 32.8046 63.941C32.8046 64.285 32.7927 64.629 32.7697 64.973C32.7537 65.316 32.7377 65.664 32.7227 66.016L32.6876 66.613C32.8826 66.59 33.0776 66.555 33.2726 66.508C33.4606 66.469 33.6476 66.434 33.8356 66.402C34.0306 66.371 34.2186 66.355 34.3976 66.355C34.5546 66.355 34.6757 66.398 34.7617 66.484C34.8477 66.562 34.8906 66.68 34.8906 66.836C34.8906 67.008 34.8586 67.176 34.7966 67.34C34.7336 67.504 34.6246 67.629 34.4686 67.715H34.4796C34.4486 67.73 34.3546 67.754 34.1986 67.785C34.0426 67.809 33.8626 67.832 33.6596 67.855C33.4646 67.879 33.2696 67.902 33.0736 67.926C32.8866 67.949 32.7456 67.965 32.6516 67.973H32.6406C32.6246 68.41 32.6126 68.844 32.6046 69.273C32.5976 69.695 32.5936 70.125 32.5936 70.562C32.5936 71.164 32.6086 71.805 32.6406 72.484C32.6796 73.156 32.7416 73.797 32.8276 74.406L32.9216 74.934C32.9526 75.066 32.9797 75.199 33.0037 75.332C33.0267 75.457 33.0386 75.582 33.0386 75.707ZM40.7617 63.391C40.7617 64.016 40.7266 64.648 40.6556 65.289C40.5936 65.922 40.4487 66.531 40.2227 67.117C40.0817 67.484 39.8946 67.867 39.6596 68.266C39.4336 68.656 39.2106 69.055 38.9916 69.461C38.7726 69.867 38.5817 70.273 38.4177 70.68C38.2617 71.078 38.1837 71.469 38.1837 71.852C38.1837 71.945 38.1876 72.035 38.1946 72.121C38.2026 72.207 38.2066 72.297 38.2066 72.391C38.2066 72.594 38.1677 72.762 38.0897 72.895C38.0117 73.027 37.8546 73.094 37.6206 73.094C37.4876 73.094 37.3276 73.07 37.1406 73.023C36.9526 72.977 36.8007 72.922 36.6837 72.859C36.4957 72.766 36.3746 72.656 36.3196 72.531C36.2656 72.398 36.2376 72.227 36.2376 72.016C36.2376 71.609 36.2966 71.219 36.4136 70.844C36.5306 70.461 36.6796 70.094 36.8586 69.742C37.0386 69.383 37.2336 69.031 37.4446 68.688C37.6556 68.344 37.8547 68 38.0427 67.656C38.4097 66.969 38.6597 66.246 38.7927 65.488C38.9337 64.73 39.0037 63.961 39.0037 63.18C39.0037 63.023 38.9916 62.836 38.9686 62.617C38.9526 62.398 38.9216 62.172 38.8746 61.938C38.8276 61.703 38.7656 61.469 38.6876 61.234C38.6166 61 38.5226 60.793 38.4056 60.613C38.2886 60.426 38.1476 60.277 37.9836 60.168C37.8276 60.051 37.6447 59.992 37.4337 59.992C37.1757 59.992 36.9647 60.074 36.8007 60.238C36.6367 60.402 36.5076 60.602 36.4136 60.836C36.3196 61.07 36.2537 61.32 36.2147 61.586C36.1837 61.844 36.1677 62.07 36.1677 62.266C36.1677 62.484 36.2026 62.711 36.2726 62.945C36.3436 63.172 36.4216 63.383 36.5076 63.578C36.5936 63.773 36.6716 63.941 36.7416 64.082C36.8116 64.215 36.8477 64.297 36.8477 64.328C36.8477 64.406 36.8116 64.469 36.7416 64.516C36.6796 64.562 36.6016 64.602 36.5076 64.633C36.4136 64.656 36.3196 64.676 36.2266 64.691C36.1326 64.699 36.0587 64.703 36.0037 64.703C35.7067 64.703 35.4606 64.613 35.2656 64.434C35.0776 64.254 34.9296 64.035 34.8196 63.777C34.7106 63.512 34.6326 63.23 34.5856 62.934C34.5466 62.637 34.5266 62.375 34.5266 62.148C34.5266 61.711 34.5816 61.281 34.6906 60.859C34.8006 60.438 34.9726 60.062 35.2066 59.734C35.4406 59.406 35.7336 59.141 36.0856 58.938C36.4446 58.734 36.8706 58.633 37.3626 58.633C38.0426 58.633 38.6016 58.777 39.0386 59.066C39.4766 59.348 39.8236 59.715 40.0816 60.168C40.3396 60.621 40.5156 61.133 40.6086 61.703C40.7106 62.266 40.7617 62.828 40.7617 63.391ZM36.5197 74.734C36.5197 74.656 36.5466 74.598 36.6016 74.559C36.6556 74.512 36.7227 74.48 36.8007 74.465C36.8867 74.441 36.9686 74.43 37.0466 74.43C37.1326 74.43 37.2067 74.43 37.2697 74.43C37.3477 74.43 37.4376 74.434 37.5386 74.441C37.6476 74.441 37.7496 74.457 37.8436 74.488C37.9376 74.512 38.0156 74.555 38.0776 74.617C38.1476 74.672 38.1837 74.75 38.1837 74.852C38.1837 74.891 38.1796 74.977 38.1716 75.109C38.1716 75.234 38.1676 75.371 38.1596 75.52C38.1596 75.668 38.1517 75.805 38.1367 75.93C38.1287 76.047 38.1206 76.109 38.1126 76.117C38.0656 76.203 37.9916 76.25 37.8906 76.258C37.7886 76.273 37.6907 76.281 37.5977 76.281C37.3627 76.281 37.1876 76.27 37.0696 76.246C36.9526 76.223 36.8666 76.176 36.8116 76.105C36.7656 76.035 36.7296 75.938 36.7066 75.812C36.6906 75.688 36.6677 75.523 36.6367 75.32C36.6207 75.227 36.5976 75.133 36.5656 75.039C36.5346 74.945 36.5197 74.844 36.5197 74.734Z" fill="white"/>
<path d="M410.526 12.199H266.398V206.706H410.526V12.199Z" fill="#FFF5DB"/>
<path d="M370.024 76.998C385.141 76.998 397.396 64.743 397.396 49.626C397.396 34.508 385.141 22.253 370.024 22.253C354.907 22.253 342.652 34.508 342.652 49.626C342.652 64.743 354.907 76.998 370.024 76.998Z" fill="white"/>
<path d="M370.127 54.956C375.392 54.956 379.659 50.688 379.659 45.424C379.659 40.159 375.392 35.891 370.127 35.891C364.862 35.891 360.594 40.159 360.594 45.424C360.594 50.688 364.862 54.956 370.127 54.956Z" fill="#FFD99F"/>
<path fill-rule="evenodd" clip-rule="evenodd" d="M346.605 63.801C353.924 59.211 370.233 52.67 392.231 65.618C387.259 72.509 379.161 76.999 370.02 76.999C360.1 76.999 351.404 71.709 346.605 63.801Z" fill="#FFD99F"/>
<path fill-rule="evenodd" clip-rule="evenodd" d="M370.635 35.904C375.375 36.154 379.2 39.871 379.623 44.562C371.507 43.114 370.656 37.899 370.635 35.904ZM360.641 44.493C361.108 39.668 365.182 35.891 370.127 35.891C370.274 35.891 370.418 35.894 370.563 35.901C369.477 41.779 363.626 43.825 360.641 44.493Z" fill="black"/>
<path fill-rule="evenodd" clip-rule="evenodd" d="M326.789 58.318H277.887V65.381H326.789V58.318ZM322.7 43.435H277.887V50.498H322.7V43.435ZM332.375 28.612H277.887V35.676H332.375V28.612Z" fill="#FFD99F"/>
<path fill-rule="evenodd" clip-rule="evenodd" d="M369.744 131.004H297.359V136.87H369.744V131.004ZM356.798 119.277H297.359V125.142H356.798V119.277ZM369.744 107.073H297.359V112.939H369.744V107.073Z" fill="#FFD99F"/>
<path d="M369.744 144.354H297.359V150.22H369.744V144.354Z" fill="#FFD99F"/>
<path fill-rule="evenodd" clip-rule="evenodd" d="M372.853 192.806H300.469V198.67H372.853V192.806ZM356.763 180.603H300.469V186.467H356.763V180.603Z" fill="#FFD99F"/>
<path d="M390.908 84.939H277.688V95.491H390.908V84.939Z" fill="#FFD99F"/>
<path d="M393.401 163.369H280.18V173.921H393.401V163.369Z" fill="#FFD99F"/>
<path d="M277.843 6.20203H133.715V200.709H277.843V6.20203Z" fill="#CAF2EF"/>
<path d="M237.337 71.002C252.455 71.002 264.71 58.747 264.71 43.63C264.71 28.513 252.455 16.258 237.337 16.258C222.22 16.258 209.965 28.513 209.965 43.63C209.965 58.747 222.22 71.002 237.337 71.002Z" fill="white"/>
<path fill-rule="evenodd" clip-rule="evenodd" d="M214.91 59.317C221.653 54.478 240.317 44.024 259.949 59.053C255.019 66.264 246.728 71.001 237.338 71.001C228.066 71.001 219.865 66.381 214.91 59.317Z" fill="#8ABBB8"/>
<path d="M238.151 46.031C243.496 46.031 247.829 41.698 247.829 36.353C247.829 31.008 243.496 26.675 238.151 26.675C232.806 26.675 228.473 31.008 228.473 36.353C228.473 41.698 232.806 46.031 238.151 46.031Z" fill="#8ABBB8"/>
<path d="M254.755 45.134C258.643 45.134 261.795 41.982 261.795 38.094C261.795 34.206 258.643 31.054 254.755 31.054C250.867 31.054 247.715 34.206 247.715 38.094C247.715 41.982 250.867 45.134 254.755 45.134Z" fill="black"/>
<path fill-rule="evenodd" clip-rule="evenodd" d="M228.477 36.702C228.475 36.586 228.473 36.469 228.473 36.353C228.473 31.011 232.808 26.674 238.151 26.674C243.492 26.674 247.827 31.011 247.827 36.353C247.827 36.669 247.814 36.982 247.782 37.291C240.538 36.326 238.542 29.95 238.542 29.95C236.182 35.606 231.48 36.658 228.477 36.702Z" fill="black"/>
<path fill-rule="evenodd" clip-rule="evenodd" d="M191.753 52.32H145.203V59.384H191.753V52.32ZM199.691 37.438H145.203V44.501H199.691V37.438ZM188.269 22.615H145.203V29.678H188.269V22.615Z" fill="#8ABBB8"/>
<path fill-rule="evenodd" clip-rule="evenodd" d="M237.51 122.526H165.125V128.391H237.51V122.526ZM237.51 110.798H165.125V116.663H237.51V110.798ZM237.51 98.595H165.125V104.46H237.51V98.595Z" fill="#8ABBB8"/>
<path fill-rule="evenodd" clip-rule="evenodd" d="M237.51 180.655H165.125V186.52H237.51V180.655ZM237.51 168.929H165.125V174.793H237.51V168.929ZM237.51 156.726H165.125V162.59H237.51V156.726Z" fill="#8ABBB8"/>
<path d="M258.229 78.941H145.008V89.493H258.229V78.941Z" fill="#8ABBB8"/>
<path d="M258.229 138.253H145.008V148.805H258.229V138.253Z" fill="#8ABBB8"/>
<path d="M148.128 0H4V194.506H148.128V0Z" fill="#EDE9FE"/>
<path d="M107.626 64.799C122.743 64.799 134.998 52.544 134.998 37.426C134.998 22.309 122.743 10.054 107.626 10.054C92.5089 10.054 80.2539 22.309 80.2539 37.426C80.2539 52.544 92.5089 64.799 107.626 64.799Z" fill="white"/>
<path fill-rule="evenodd" clip-rule="evenodd" d="M83.8359 50.965C88.8569 44.647 97.6499 40.455 107.651 40.455C117.633 40.455 126.413 44.632 131.437 50.93C126.729 59.209 117.826 64.799 107.627 64.799C97.4439 64.799 88.5509 59.226 83.8359 50.965Z" fill="#C4B8F3"/>
<path fill-rule="evenodd" clip-rule="evenodd" d="M104.086 40.635C105.254 40.516 106.445 40.455 107.653 40.455C109.319 40.455 110.952 40.571 112.54 40.795C112.269 42.375 111.207 43.495 109.99 44L113.136 64.244C111.356 64.608 109.515 64.8 107.629 64.8C105.999 64.8 104.401 64.657 102.848 64.383L106.967 44.015C104.952 43.31 104.295 41.549 104.086 40.635Z" fill="black"/>
<path d="M107.509 37.255C112.78 37.255 117.053 32.982 117.053 27.711C117.053 22.44 112.78 18.167 107.509 18.167C102.238 18.167 97.9648 22.44 97.9648 27.711C97.9648 32.982 102.238 37.255 107.509 37.255Z" fill="#C4B8F3"/>
<path fill-rule="evenodd" clip-rule="evenodd" d="M97.9648 27.681C97.9818 22.427 102.252 18.167 107.509 18.167C112.777 18.167 117.054 22.443 117.054 27.711C117.054 28.124 117.027 28.531 116.976 28.93C110.631 28.241 107.955 21.552 107.955 21.552C105.667 26.418 100.64 27.474 97.9648 27.681Z" fill="black"/>
<path fill-rule="evenodd" clip-rule="evenodd" d="M50.3463 46.117H15.4883V53.181H50.3463V46.117ZM69.9763 31.235H15.4883V38.298H69.9763V31.235ZM69.9763 16.411H15.4883V23.475H69.9763V16.411Z" fill="#C4B8F3"/>
<path fill-rule="evenodd" clip-rule="evenodd" d="M107.79 116.323H35.4062V122.188H107.79V116.323ZM107.79 104.595H35.4062V110.46H107.79V104.595ZM107.79 92.392H35.4062V98.257H107.79V92.392Z" fill="#C4B8F3"/>
<path fill-rule="evenodd" clip-rule="evenodd" d="M107.79 174.453H35.4062V180.317H107.79V174.453ZM107.79 162.726H35.4062V168.59H107.79V162.726ZM107.79 150.523H35.4062V156.387H107.79V150.523Z" fill="#C4B8F3"/>
<path d="M128.51 72.739H15.2891V83.29H128.51V72.739Z" fill="#C4B8F3"/>
<path d="M128.51 132.05H15.2891V142.602H128.51V132.05Z" fill="#C4B8F3"/>
<path d="M163.694 90.222C177.226 88.2 185.658 69.586 182.528 48.647C179.399 27.708 165.892 12.374 152.361 14.396C138.83 16.419 130.397 35.032 133.527 55.971C136.657 76.91 150.163 92.245 163.694 90.222Z" fill="white"/>
<path fill-rule="evenodd" clip-rule="evenodd" d="M136.766 68.28C142.432 62.235 150.482 57.887 159.914 56.477C168.139 55.248 176.191 56.437 183.139 59.457C182.512 75.643 174.825 88.559 163.695 90.222C153.007 91.82 142.319 82.564 136.766 68.28Z" fill="#C4B8F3"/>
<path fill-rule="evenodd" clip-rule="evenodd" d="M160.103 90.357L159.984 61.831C157.096 61.201 155.729 58.751 155.199 57.452C156.727 57.045 158.299 56.717 159.916 56.476C162.14 56.143 164.356 55.988 166.539 55.998C166.616 58.368 165.507 60.222 164.019 61.205L172.431 86.123C169.868 88.308 166.928 89.738 163.696 90.221C162.497 90.401 161.296 90.443 160.103 90.357Z" fill="black"/>
<path d="M158.833 51.816C165.877 50.763 170.406 43.646 168.948 35.92C167.489 28.194 160.597 22.784 153.552 23.837C146.508 24.89 141.979 32.007 143.437 39.733C144.895 47.459 151.788 52.869 158.833 51.816Z" fill="#C4B8F3"/>
<path fill-rule="evenodd" clip-rule="evenodd" d="M143.432 39.689C142.001 31.985 146.529 24.887 153.555 23.837C160.595 22.785 167.494 28.199 168.951 35.92C169.065 36.526 169.143 37.127 169.185 37.722C160.514 37.98 155.088 28.71 155.088 28.71C153.376 36.3 146.95 38.852 143.432 39.689Z" fill="black"/>
<path fill-rule="evenodd" clip-rule="evenodd" d="M162.304 91.433L168.248 132.484C168.454 133.913 169.783 134.905 171.211 134.698C172.641 134.491 173.633 133.163 173.425 131.734L167.482 90.683C167.274 89.254 165.947 88.262 164.517 88.468C163.09 88.675 162.098 90.003 162.304 91.433Z" fill="#7B26A2"/>
<path fill-rule="evenodd" clip-rule="evenodd" d="M163.553 100.048L162.304 91.432C162.099 90.003 163.09 88.675 164.52 88.468C165.949 88.261 167.277 89.253 167.482 90.683L168.424 97.186C166.606 98.778 164.976 99.643 163.553 100.048Z" fill="black"/>
<path fill-rule="evenodd" clip-rule="evenodd" d="M163.249 87.974C158.53 88.619 153.875 86.751 149.788 83.218C143.134 77.464 138.022 67.384 136.398 55.486C134.774 43.587 136.997 32.506 141.864 25.179C144.855 20.68 148.839 17.6331 153.558 16.9891C154.989 16.7931 155.993 15.473 155.798 14.043C155.603 12.612 154.281 11.609 152.85 11.804C146.71 12.643 141.396 16.428 137.507 22.284C132.054 30.489 129.395 42.868 131.214 56.193C133.033 69.519 138.913 80.732 146.366 87.176C151.682 91.775 157.817 93.997 163.957 93.159C165.388 92.963 166.392 91.643 166.197 90.212C166.001 88.782 164.68 87.779 163.249 87.974Z" fill="#7B26A2"/>
<path fill-rule="evenodd" clip-rule="evenodd" d="M153.563 16.988C158.284 16.343 162.94 18.211 167.027 21.744C173.68 27.498 178.792 37.578 180.416 49.476C182.041 61.374 179.818 72.456 174.95 79.783C171.96 84.282 167.975 87.329 163.254 87.974C161.823 88.169 160.821 89.489 161.017 90.919C161.212 92.35 162.531 93.353 163.962 93.158C170.105 92.319 175.416 88.534 179.308 82.678C184.76 74.473 187.418 62.094 185.599 48.769C183.78 35.443 177.901 24.23 170.449 17.786C165.13 13.188 158.998 10.965 152.856 11.804C151.425 11.999 150.423 13.319 150.618 14.75C150.813 16.18 152.132 17.183 153.563 16.988Z" fill="#7B26A2"/>
<path fill-rule="evenodd" clip-rule="evenodd" d="M193.132 201.92C193.132 201.92 151.164 281.754 142.039 301.671C142.039 301.671 131.835 302.744 127.203 309.268H197.547L214.528 279.688C214.528 279.688 227.117 296.279 238.469 301.671C238.469 301.671 231.9 305.544 231.073 309.268H295.704L249.572 237.28C249.572 237.28 282.641 175.269 249.572 157.267C240.255 152.195 217.362 153.176 193.132 201.92Z" fill="#E7E7E7"/>
<path fill-rule="evenodd" clip-rule="evenodd" d="M210.075 174.626L197.942 202.216C188.917 222.743 191.231 246.489 204.051 264.889L204.116 264.981L254.234 244.556L255.223 246.103L205.175 266.501C210.685 274.391 215.786 281.439 218.44 284.431C218.487 284.483 218.528 284.539 218.564 284.598C216.071 281.723 214.526 279.689 214.526 279.689L213.361 281.716C210.342 277.751 206.343 272.137 202.197 266.178C198.489 260.856 195.63 255.1 193.638 249.104L169.508 247.219L169.912 246.44L170.411 245.478L193.051 247.248C188.567 232.295 189.413 216.004 195.876 201.308L203.884 183.096C205.975 179.957 208.041 177.144 210.075 174.626ZM250.309 238.435L250.3 238.455C250.3 238.455 246.353 232.204 244.045 228.551C243.812 228.185 243.844 227.713 244.119 227.379C244.395 227.044 244.853 226.927 245.255 227.085L253.003 230.113C251.016 234.569 249.571 237.281 249.571 237.281L250.309 238.435Z" fill="#444444"/>
<path fill-rule="evenodd" clip-rule="evenodd" d="M311.685 44.06C314.305 41.775 318.049 37.579 318.792 35.392C319.873 32.214 317.606 31.78 316.389 32.731C311.324 36.686 304.394 39.743 304.394 39.743C291.362 45.416 259.201 80.335 259.201 80.335C240.301 98.8 210.416 100.09 202.127 100.075C199.288 100.062 196.481 100.686 193.916 101.901C185.116 106.088 179.791 114.869 179.791 114.869C179.791 114.869 176.433 111.271 173.493 109.636C172.267 108.958 170.743 109.171 169.749 110.158C166.915 109.631 164.113 111.215 163.104 113.914C162.878 114.522 162.69 115.08 162.598 115.507C162.598 115.507 159.965 116.562 159.829 119.413C159.829 119.413 156.727 120.702 156.713 123.732C156.713 123.732 152.104 128.476 156.713 133.11C156.713 133.11 159.854 134.956 160.615 130.913C160.615 130.913 161.744 167.605 162.297 185.587C162.489 191.763 165.287 197.568 170.002 201.563C175.81 206.486 184.161 207.01 190.54 202.852C190.967 202.575 191.378 202.308 191.768 202.053C194.6 200.208 197.032 197.81 198.916 195.001C202.034 190.345 206.026 182.683 206.406 173.524V154.487C206.406 154.487 221.147 160.374 231.573 137.908C231.573 137.908 238.555 139.084 248.026 136.793C253.691 135.423 260.249 132.813 266.737 127.967C271.271 124.59 275.18 120.442 278.283 115.713C284.348 106.478 299.984 82.641 304.394 75.784C304.394 75.784 309.768 67.906 314.382 63.937C314.382 63.937 318.887 68.277 322.585 59.128C322.585 59.128 324.363 54.8131 319.483 52.8341C319.483 52.8341 319.842 48.013 315.213 47.948C315.673 44.654 314.054 43.908 311.685 44.06Z" fill="#2D2D2D"/>
<path fill-rule="evenodd" clip-rule="evenodd" d="M274.943 64.097C279.629 66.873 288.657 73.176 298.372 85.05C291.85 95.038 282.619 109.109 278.281 115.714C275.178 120.442 271.269 124.59 266.735 127.968C260.247 132.813 253.69 135.424 248.024 136.794C238.553 139.084 231.571 137.908 231.571 137.908C221.145 160.375 206.404 154.488 206.404 154.488V173.524C206.025 182.683 202.032 190.345 198.914 195.001C197.03 197.81 194.598 200.208 191.767 202.053C191.376 202.309 190.965 202.575 190.538 202.853C184.159 207.01 175.808 206.486 170 201.563C165.285 197.569 162.487 191.763 162.296 185.587L161.16 148.682H176.563C176.276 144.773 176.515 124.427 178.127 119.229C178.757 117.194 179.387 115.691 180.074 114.425C181.284 112.59 186.297 105.525 193.914 101.902C196.479 100.686 199.286 100.062 202.125 100.075C210.414 100.09 240.299 98.801 259.2 80.336C259.2 80.336 266.175 72.763 274.943 64.097Z" fill="#505050"/>
<path fill-rule="evenodd" clip-rule="evenodd" d="M176.522 147.928H176.578V183.765C176.578 184.029 176.373 184.246 176.109 184.257C175.847 184.268 175.622 184.072 175.599 183.81L172.438 148.682H176.563C176.547 148.475 176.533 148.223 176.522 147.928ZM206.404 155.56L205.086 127.201C205.08 127.027 205.198 126.874 205.37 126.842C205.539 126.81 205.709 126.909 205.763 127.074C207.118 131.488 209.897 141.574 211.69 155.161C208.509 155.328 206.404 154.488 206.404 154.488V155.56ZM231.141 138.815C232.121 136.268 235.469 125.758 229.22 114.371C229.08 114.119 229.15 113.802 229.383 113.631C229.616 113.46 229.939 113.489 230.139 113.698C233.12 116.854 237.851 123.78 241.272 137.954C235.417 138.556 231.571 137.908 231.571 137.908C231.429 138.216 231.285 138.519 231.141 138.815Z" fill="#2D2D2D"/>
<path fill-rule="evenodd" clip-rule="evenodd" d="M160.832 129.932C160.689 130.792 160.396 131.745 160.396 131.745L157.702 130.302C157.259 130.073 157.085 129.528 157.314 129.085C157.544 128.642 158.088 128.468 158.531 128.697L160.832 129.932ZM157.404 121.438C157.72 121.364 158.07 121.322 158.454 121.331C160.175 121.371 162.762 122.482 165.849 127.238C166.123 127.656 166.003 128.216 165.585 128.488C165.167 128.759 164.607 128.64 164.334 128.222C161.789 124.3 159.831 123.17 158.411 123.137C157.311 123.112 156.695 123.822 156.695 123.822L156.708 123.732C156.713 122.811 157.002 122.05 157.404 121.438ZM160.437 117.385C160.782 117.341 161.175 117.334 161.615 117.388C163.234 117.587 165.675 118.676 168.771 122.51C169.085 122.898 169.024 123.467 168.636 123.78C168.247 124.093 167.678 124.033 167.367 123.645C162.351 117.435 159.825 119.413 159.825 119.413C159.863 118.595 160.107 117.925 160.437 117.385ZM163.289 113.462C163.666 113.415 164.092 113.397 164.564 113.431C166.308 113.559 168.756 114.415 171.456 117.508C171.784 117.883 171.745 118.454 171.37 118.782C170.996 119.11 170.424 119.072 170.097 118.696C166.375 114.436 163.383 115.184 162.595 115.488C162.692 115.064 162.875 114.514 163.099 113.914C163.155 113.76 163.221 113.609 163.289 113.462ZM171.492 109.279C172.728 110.088 174.426 111.501 175.968 113.815C176.244 114.23 176.131 114.791 175.717 115.068C175.302 115.344 174.74 115.232 174.464 114.817C172.296 111.562 169.573 110.127 169.745 110.159C170.232 109.674 170.847 109.376 171.492 109.279ZM314.377 63.937C313.873 64.37 318.688 58.988 318.688 58.988C319.632 58.205 320.697 59.315 320.018 60.211L315.822 64.773C314.935 64.476 314.377 63.937 314.377 63.937ZM319.304 51.114C319.537 52.052 319.478 52.834 319.478 52.834C319.582 52.876 317.708 53.162 316.712 53.688C314.849 54.671 313.322 56.181 313.322 56.181C312.968 56.531 312.394 56.528 312.044 56.173C311.694 55.818 311.699 55.246 312.053 54.896C312.053 54.896 313.772 53.197 315.87 52.09C316.969 51.509 318.171 51.111 319.304 51.114ZM315.21 46.056C315.309 46.561 315.314 47.179 315.21 47.931C314.092 48.281 311.934 49.221 309.181 51.703C308.811 52.037 308.239 52.007 307.905 51.637C307.571 51.267 307.6 50.695 307.971 50.361C311.371 47.296 314.016 46.346 315.21 46.056ZM313.907 41.93C313.137 42.725 312.372 43.459 311.681 44.06C311.787 44.054 307.273 45.761 304.886 47.302C304.466 47.572 303.908 47.452 303.637 47.033C303.366 46.614 303.486 46.054 303.906 45.784C307.327 43.577 310.924 42.108 313.907 41.93Z" fill="#C7C6C6"/>
<path d="M202.514 90.706C209.718 90.706 215.559 84.866 215.559 77.662C215.559 70.457 209.718 64.617 202.514 64.617C195.31 64.617 189.469 70.457 189.469 77.662C189.469 84.866 195.31 90.706 202.514 90.706Z" fill="#717171"/>
<path fill-rule="evenodd" clip-rule="evenodd" d="M205.406 64.938C211.219 66.255 215.561 71.455 215.561 77.661C215.561 84.86 209.715 90.705 202.516 90.705C202.306 90.705 202.094 90.7 201.886 90.69C199.777 85.935 203.008 83.995 203.875 83.574C204.408 84.02 205.097 84.29 205.849 84.29C207.54 84.29 208.913 82.93 208.913 81.254C208.913 79.579 207.54 78.219 205.849 78.219C205.169 78.219 204.539 78.44 204.029 78.814C199.151 72.166 203.198 67.017 205.406 64.938Z" fill="black"/>
<path fill-rule="evenodd" clip-rule="evenodd" d="M218.462 79.622C218.326 79.584 219.336 79.0481 219.595 78.8771C220.313 78.4041 221.02 77.902 221.686 77.357C223.701 75.707 224.972 73.722 226.37 71.565C231.116 64.237 238.756 56.829 247.964 56.466C264.252 55.826 273.281 74.264 270.909 88.412C269.112 99.143 257.733 104.764 247.56 103.265C241.517 102.375 235.685 98.895 231.629 94.374C229.247 91.717 227.449 88.601 225.487 85.637C223.721 82.966 221.86 80.007 218.462 79.622Z" fill="black"/>
</svg>
